<svg width="900" height="984" viewBox="0 0 900 984" fill="none" xmlns="http://www.w3.org/2000/svg">
<path d="M60 267.779L31.0396 215.231L0 267.779H60ZM839.423 267.779H899.423L868.383 215.231L839.423 267.779ZM839.423 710.337L869.048 762.513L899.423 710.337H839.423ZM449.711 931.616L420.086 983.792H479.337L449.711 931.616ZM60 710.337H0L30.3744 762.513L60 710.337ZM449.711 53L478.672 0.451983L420.751 0.451984L449.711 53ZM449.711 476.5L421.384 529.392L449.711 544.563L478.039 529.392L449.711 476.5ZM779.423 267.779V710.337H899.423V267.779H779.423ZM809.797 658.161L420.086 879.44L479.337 983.792L869.048 762.513L809.797 658.161ZM479.337 879.44L89.6256 658.161L30.3744 762.513L420.086 983.792L479.337 879.44ZM120 710.337V267.779H0V710.337H120ZM88.9604 320.327L478.672 105.548L420.751 0.451984L31.0396 215.231L88.9604 320.327ZM420.751 105.548L810.462 320.327L868.383 215.231L478.672 0.451983L420.751 105.548ZM31.6723 320.671L421.384 529.392L478.039 423.608L88.3277 214.887L31.6723 320.671ZM478.039 529.392L867.751 320.671L811.095 214.887L421.384 423.608L478.039 529.392Z" fill="#C6AE59"/>
</svg>
