<svg width="148" height="162" viewBox="0 0 148 162" fill="none" xmlns="http://www.w3.org/2000/svg">
<path d="M7.46729 42.6677L4.32991 36.975L0.967285 42.6677H7.46729ZM140.533 42.6677H147.033L143.67 36.975L140.533 42.6677ZM140.533 118.223L143.742 123.875L147.033 118.223H140.533ZM74 156L70.7906 161.652H77.2095L74 156ZM7.46729 118.223H0.967285L4.25785 123.875L7.46729 118.223ZM74 6L77.1374 0.307298L70.8626 0.307298L74 6ZM74 78.3012L70.9312 84.0312L74 85.6748L77.0689 84.0312L74 78.3012ZM134.033 42.6677V118.223H147.033V42.6677H134.033ZM137.323 112.57L70.7906 150.348L77.2095 161.652L143.742 123.875L137.323 112.57ZM77.2095 150.348L10.6767 112.57L4.25785 123.875L70.7906 161.652L77.2095 150.348ZM13.9673 118.223V42.6677H0.967285V118.223H13.9673ZM10.6047 48.3604L77.1374 11.6927L70.8626 0.307298L4.32991 36.975L10.6047 48.3604ZM70.8626 11.6927L137.395 48.3604L143.67 36.975L77.1374 0.307298L70.8626 11.6927ZM4.39845 48.3977L70.9312 84.0312L77.0689 72.5713L10.5361 36.9378L4.39845 48.3977ZM77.0689 84.0312L143.602 48.3977L137.464 36.9378L70.9312 72.5713L77.0689 84.0312Z" fill="#C6AE59"/>
</svg>
