<svg xmlns="http://www.w3.org/2000/svg" width="29" height="41" viewBox="0 0 29 41" fill="none">
  <g clip-path="url(#clip0_408_190)">
    <path d="M20.1588 1.36881C20.4847 1.7734 20.6509 2.3193 20.9832 3.41111L28.2439 27.2625C25.5166 25.8472 22.5895 24.8561 19.5634 24.3236L14.836 8.34816C14.7983 8.22074 14.7203 8.10896 14.6138 8.02952C14.5073 7.95009 14.3779 7.90728 14.245 7.90749C14.1121 7.90769 13.9829 7.95091 13.8766 8.03068C13.7704 8.11045 13.6928 8.22248 13.6554 8.35002L8.98528 24.3156C5.94552 24.8456 3.0049 25.8382 0.265717 27.2588L7.56189 3.40553C7.89533 2.3157 8.06211 1.77067 8.38801 1.36685C8.67572 1.01036 9.04994 0.733515 9.47501 0.562693C9.95643 0.369141 10.5264 0.369141 11.6662 0.369141H16.8774C18.0187 0.369141 18.5893 0.369141 19.0713 0.56302C19.4967 0.734257 19.8711 1.01168 20.1587 1.36881H20.1588Z" fill="black"/>
    <path d="M21.0277 28.3976C19.8307 29.421 17.4417 30.119 14.6898 30.119C11.3123 30.119 8.48135 29.0675 7.7302 27.6534C7.46157 28.4638 7.40135 29.3915 7.40135 29.9839C7.40135 29.9839 7.22441 32.8936 9.24813 34.9173C9.24813 33.8664 10.1 33.0145 11.1509 33.0145C12.952 33.0145 12.9498 34.5859 12.9482 35.8608L12.9481 35.9745C12.9481 37.9095 14.1306 39.5683 15.8126 40.2674C15.5537 39.7346 15.4196 39.1498 15.4205 38.5574C15.4205 36.7119 16.5039 36.0248 17.7631 35.2262C18.765 34.5908 19.8782 33.8848 20.6453 32.4686C21.0584 31.7057 21.2742 30.8515 21.2728 29.9839C21.2728 29.4309 21.1869 28.8979 21.0277 28.3976Z" fill="#FF5D01"/>
  </g>
  <defs>
    <clipPath id="clip0_408_190">
      <rect width="27.9781" height="40" fill="white" transform="translate(0.265717 0.369141)"/>
    </clipPath>
  </defs>
</svg>