<svg xmlns="http://www.w3.org/2000/svg" width="68" height="41" viewBox="0 0 68 41" fill="none">
  <g clip-path="url(#clip0_408_477)">
    <path d="M19.8222 14.8746L20.2618 16.8527C20.2618 17.512 20.4816 17.9516 20.9211 18.6109V19.0505L20.7013 19.7098L19.1629 20.5889L18.7233 20.8087L18.064 20.5889L17.1849 19.49L16.5255 18.1713C14.7673 20.1494 12.5695 21.2483 10.1519 21.2483C8.17387 21.2483 6.63541 20.5889 5.75629 19.49C4.65739 18.6109 3.99805 17.0724 3.99805 15.3142C3.99805 13.556 4.65739 12.0175 5.97607 10.9186C7.29475 9.59991 9.05299 9.16035 11.4706 9.16035C13.1053 9.15141 14.7331 9.37338 16.3057 9.81969V8.28123C16.3057 6.52298 15.8662 5.42408 15.2068 4.76474C14.5475 3.88562 13.4486 3.66584 11.6904 3.66584L9.27277 3.88562C8.21525 4.15563 7.18516 4.52351 6.19585 4.98452H5.75629C5.53651 4.98452 5.31673 4.76474 5.31673 4.32518V3.22628L5.53651 2.56694C5.53651 2.34716 5.75629 2.12738 6.19585 2.12738L8.83321 1.02848L12.3497 0.588919C14.9871 0.588919 16.7453 1.24826 18.064 2.34716C19.1629 3.66584 19.8222 5.42408 19.8222 7.84167V14.8746ZM11.031 18.3911L13.2288 17.9516C14.1079 17.7318 14.7673 17.0724 15.4266 16.4131L16.086 15.0944L16.3057 13.1164V12.2373C14.935 11.9324 13.534 11.7849 12.1299 11.7977C10.8112 11.7977 9.71233 12.0175 8.83321 12.6768C8.17387 13.1164 7.95409 13.9955 7.95409 15.0944C7.95409 16.1933 8.17387 16.8527 8.61343 17.512C9.27277 17.9516 9.93211 18.3911 11.031 18.3911ZM28.6134 20.5889L27.7343 20.3691L27.2948 19.7098L22.2398 2.56694L22.02 1.68782L22.4596 1.24826H24.6574L25.5365 1.46804L25.9761 2.34716L29.7123 16.8527L33.009 2.34716L33.4486 1.46804L34.3277 1.24826H36.086L36.9651 1.46804L37.4046 2.34716L40.9211 17.0724L44.6574 2.34716L45.0969 1.46804L45.9761 1.24826H47.9541C48.3937 1.24826 48.6134 1.46804 48.6134 1.68782V2.12738L48.3937 2.56694L43.1189 19.7098L42.6794 20.5889L41.8002 20.8087H39.8222L38.9431 20.5889L38.7233 19.7098L35.2068 5.42408L31.9101 19.49L31.4706 20.3691L30.5915 20.5889H28.6134ZM56.9651 21.2483C54.9161 21.2327 52.8937 20.7833 51.031 19.9296L50.3717 19.2702L50.1519 18.8307V17.7318C50.1519 17.2922 50.3717 17.0724 50.5915 17.0724H51.031L51.6904 17.2922C53.274 18.0257 55 18.401 56.7453 18.3911C58.064 18.3911 59.1629 17.9516 59.8222 17.512C60.7013 17.0724 60.9211 16.4131 60.9211 15.534L60.4816 13.9955L58.2838 12.8966L54.9871 11.7977C53.4486 11.3581 52.1299 10.479 51.4706 9.59991C51.0435 9.04042 50.7327 8.40111 50.5566 7.71965C50.3804 7.03819 50.3424 6.32836 50.4448 5.63199C50.5472 4.93562 50.7879 4.26679 51.1528 3.6649C51.5177 3.06301 51.9994 2.54023 52.5695 2.12738L54.7673 1.02848C56.1789 0.544778 57.6834 0.394333 59.1629 0.588919C60.0537 0.759058 60.9342 0.979186 61.8002 1.24826L62.6794 1.68782L63.3387 2.12738L63.5585 3.0065V3.88562C63.5585 4.54496 63.3387 4.76474 63.1189 4.76474L62.2398 4.32518C60.9211 3.88562 59.6024 3.66584 58.064 3.66584C56.7453 3.66584 55.6464 3.66584 54.9871 4.1054C54.3277 4.54496 54.1079 5.2043 54.1079 6.08342C54.1079 6.74276 54.3277 7.18233 54.7673 7.62189C55.2068 8.06145 55.8662 8.50101 57.1849 8.94057L60.2618 9.81969C61.8002 10.479 62.8991 11.1384 63.5585 12.0175C64.2178 12.8966 64.6574 13.9955 64.6574 15.0944L63.998 17.7318L62.4596 19.49C61.8002 20.1494 60.9211 20.5889 60.042 20.8087L56.9651 21.2483Z" fill="#FFFFFF"/>
    <path fill-rule="evenodd" clip-rule="evenodd" d="M61.1409 32.0175C52.1755 38.0054 41.466 40.8252 30.7143 40.0288C19.9626 39.2324 9.78554 34.8654 1.80025 27.6219C0.921124 26.9626 1.58046 26.3032 2.23981 26.7428C10.9716 31.6892 20.7172 34.5771 30.7342 35.1865C40.7511 35.7959 50.775 34.1107 60.042 30.2593C61.1409 29.8197 62.2398 31.1384 61.1409 32.0175Z" fill="#FF9900"/>
    <path fill-rule="evenodd" clip-rule="evenodd" d="M63.9981 28.501C63.119 27.4021 57.8442 27.8417 55.6464 28.2813C54.7673 28.2813 54.7673 27.6219 55.4267 27.1824C59.6025 24.3252 66.4157 25.2043 67.075 26.0835C67.9541 27.1824 66.8552 33.9956 63.119 37.2923C62.4596 37.7318 61.8003 37.512 62.0201 36.8527C63.119 34.6549 64.8772 29.5999 63.9981 28.501Z" fill="#FF9900"/>
  </g>
  <defs>
    <clipPath id="clip0_408_477">
      <rect width="66.8132" height="40" fill="white" transform="translate(0.921143 0.369141)"/>
    </clipPath>
  </defs>
</svg>