<svg xmlns="http://www.w3.org/2000/svg" width="36" height="41" viewBox="0 0 36 41" fill="none">
  <g clip-path="url(#clip0_408_248)">
    <path d="M3.48148 35.7538L0.327637 0.369141H35.0199L31.8661 35.7538L17.6353 39.7538" fill="#0C73B8"/>
    <path d="M17.7123 36.6769L29.1738 33.523L31.8661 3.21533H17.7123" fill="#30A9DC"/>
    <path d="M17.7123 16.3691H7.55842L7.94303 20.7537H17.7123V16.3691ZM17.7123 7.59985H6.78918L7.1738 11.9075H17.7123V7.59985ZM17.7123 27.6768L8.1738 25.1383L8.71226 29.7537L17.7123 32.2152V27.6768Z" fill="#ECEDEE"/>
    <path d="M17.7123 20.7537H23.02L22.4815 26.3691L17.7123 27.6768V32.2152L26.5584 29.7537L28.5584 7.59985H17.7123V11.9075H23.8661L23.4046 16.3691H17.7123V20.7537Z" fill="white"/>
  </g>
  <defs>
    <clipPath id="clip0_408_248">
      <rect width="34.7692" height="40" fill="white" transform="translate(0.327637 0.369141)"/>
    </clipPath>
  </defs>
</svg>