<svg xmlns="http://www.w3.org/2000/svg" width="41" height="41" viewBox="0 0 41 41" fill="none">
  <g clip-path="url(#clip0_408_473)">
    <path d="M40.4276 31.3629C38.9726 31.7329 38.0726 31.3792 37.2651 30.1667L31.5226 22.2217L30.6926 21.1217L23.9864 30.1929C23.2201 31.2842 22.4164 31.7592 20.9864 31.3729L29.5739 19.8454L21.5789 9.43293C22.9539 9.16543 23.9039 9.30168 24.7476 10.5329L30.7039 18.5767L36.7039 10.5767C37.4726 9.48543 38.2989 9.07043 39.6789 9.47293L36.5789 13.5829L32.3789 19.0517C31.8789 19.6767 31.9476 20.1042 32.4076 20.7079L40.4276 31.3629ZM0.437612 19.6529L1.14011 16.1979C3.05261 9.36043 10.8901 6.51918 16.2951 10.7442C19.4539 13.2292 20.2389 16.7442 20.0826 20.6817H2.27761C2.01011 27.7692 7.11136 32.0467 13.6151 29.8642C15.8964 29.0979 17.2401 27.3117 17.9126 25.0767C18.2539 23.9567 18.8189 23.7817 19.8714 24.1017C19.3339 26.8967 18.1214 29.2317 15.5589 30.6929C11.7301 32.8804 6.26511 32.1729 3.39011 29.1329C1.67761 27.3692 0.970112 25.1342 0.652612 22.7442C0.602612 22.3492 0.502612 21.9729 0.427612 21.5942C0.434279 20.9475 0.437612 20.3008 0.437612 19.6542V19.6529ZM2.31011 19.1779H18.4001C18.2951 14.0529 15.1039 10.4129 10.7426 10.3817C5.95511 10.3442 2.51761 13.8979 2.31011 19.1779Z" fill="white"/>
  </g>
  <defs>
    <clipPath id="clip0_408_473">
      <rect width="40" height="40" fill="white" transform="translate(0.427612 0.369141)"/>
    </clipPath>
  </defs>
</svg>