<svg xmlns="http://www.w3.org/2000/svg" width="28" height="41" viewBox="0 0 28 41" fill="none">
  <g clip-path="url(#clip0_407_72)">
    <mask id="mask0_407_72" style="mask-type:luminance" maskUnits="userSpaceOnUse" x="0" y="0" width="28" height="41">
      <path d="M27.225 0.369141H0.55838V40.3691H27.225V0.369141Z" fill="white"/>
    </mask>
    <g mask="url(#mask0_407_72)">
      <path d="M7.22503 40.3692C10.905 40.3692 13.8917 37.3825 13.8917 33.7025V27.0359H7.22503C3.54504 27.0359 0.55838 30.0225 0.55838 33.7025C0.55838 37.3825 3.54504 40.3692 7.22503 40.3692Z" fill="#0ACF83"/>
      <path d="M0.55838 20.369C0.55838 16.689 3.54504 13.7024 7.22503 13.7024H13.8917V27.0357H7.22503C3.54504 27.0357 0.55838 24.049 0.55838 20.369Z" fill="#A259FF"/>
      <path d="M0.55838 7.03579C0.55838 3.35581 3.54504 0.369141 7.22503 0.369141H13.8917V13.7025H7.22503C3.54504 13.7025 0.55838 10.7158 0.55838 7.03579Z" fill="#F24E1E"/>
      <path d="M13.8917 0.369141H20.5584C24.2384 0.369141 27.2251 3.35581 27.2251 7.03579C27.2251 10.7158 24.2384 13.7025 20.5584 13.7025H13.8917V0.369141Z" fill="#FF7262"/>
      <path d="M27.2251 20.369C27.2251 24.049 24.2384 27.0357 20.5584 27.0357C16.8784 27.0357 13.8917 24.049 13.8917 20.369C13.8917 16.689 16.8784 13.7024 20.5584 13.7024C24.2384 13.7024 27.2251 16.689 27.2251 20.369Z" fill="#1ABCFE"/>
    </g>
  </g>
  <defs>
    <clipPath id="clip0_407_72">
      <rect width="27" height="40" fill="white" transform="translate(0.55838 0.369141)"/>
    </clipPath>
  </defs>
</svg>