<svg xmlns="http://www.w3.org/2000/svg" width="36" height="41" viewBox="0 0 36 41" fill="none">
  <g clip-path="url(#clip0_408_243)">
    <path d="M3.7122 35.7538L0.55835 0.369141H35.2507L32.0968 35.7538L17.866 39.7538" fill="#E34F26"/>
    <path d="M17.943 36.6769L29.4045 33.523L32.0968 3.21533H17.943" fill="#EF652A"/>
    <path d="M17.943 16.3691H12.1737L11.7891 11.9075H17.943V7.59985H7.0199L8.17374 20.7537H17.943V16.3691ZM17.943 27.6768L13.0199 26.3691L12.7122 22.9075H8.40451L8.94297 29.7537L17.943 32.2152V27.6768Z" fill="#ECEDEE"/>
    <path d="M17.943 20.7537H23.2507L22.7122 26.3691L17.943 27.6768V32.2152L26.7891 29.7537L28.0199 16.3691H17.943V20.7537ZM17.943 7.59985V11.9075H28.4045L28.7891 7.59985H17.943Z" fill="white"/>
  </g>
  <defs>
    <clipPath id="clip0_408_243">
      <rect width="34.7692" height="40" fill="white" transform="translate(0.55835 0.369141)"/>
    </clipPath>
  </defs>
</svg>