<svg xmlns="http://www.w3.org/2000/svg" width="41" height="41" viewBox="0 0 41 41" fill="none">
  <g clip-path="url(#clip0_408_237)">
    <path d="M0.55835 0.369141H40.5583V40.3691H0.55835V0.369141Z" fill="#F0DB4F"/>
    <path d="M37.2846 30.8292C36.9918 29.0041 35.8017 27.4718 32.277 26.0421C31.0526 25.4794 29.6876 25.0764 29.2808 24.1486C29.1363 23.6087 29.1173 23.3045 29.2085 22.9775C29.4709 21.9166 30.7371 21.5859 31.7409 21.89C32.3872 22.1068 32.9994 22.6049 33.3682 23.3995C35.0945 22.2817 35.0907 22.2893 36.296 21.5213C35.8549 20.8368 35.6192 20.5212 35.3302 20.2285C34.2922 19.0688 32.8777 18.4718 30.6154 18.5174C30.2237 18.5669 29.8283 18.6201 29.4367 18.6695C28.3074 18.9547 27.2313 19.5479 26.6002 20.3425C24.7066 22.4908 25.2466 26.2513 27.5507 27.7988C29.8207 29.5022 33.1553 29.8901 33.5812 31.4832C33.9956 33.4338 32.1477 34.0649 30.3112 33.8406C28.9576 33.5593 28.2048 32.8711 27.391 31.6201C25.893 32.487 25.893 32.487 24.3531 33.373C24.7181 34.1714 25.1021 34.5327 25.7143 35.2247C28.6116 38.1638 35.8625 38.0193 37.1629 33.5707C37.2161 33.4185 37.566 32.3995 37.2846 30.8292ZM22.3036 18.7532H18.5621C18.5621 21.9851 18.547 25.1942 18.547 28.4262C18.547 30.4832 18.6534 32.3691 18.3188 32.9471C17.7713 34.0839 16.3531 33.9433 15.7067 33.7227C15.0489 33.3995 14.7143 32.9394 14.3264 32.2893C14.22 32.103 14.1401 31.9585 14.1135 31.9471C13.0983 32.5668 12.0869 33.1904 11.0717 33.8102C11.5774 34.8482 12.3226 35.7493 13.277 36.3349C14.7028 37.1904 16.6192 37.4527 18.623 36.9927C19.9272 36.6124 21.0526 35.8254 21.642 34.6277C22.4937 33.0573 22.3112 31.1562 22.3036 29.0535C22.3226 25.6239 22.3036 22.1942 22.3036 18.7532Z" fill="#323330"/>
  </g>
  <defs>
    <clipPath id="clip0_408_237">
      <rect width="40" height="40" fill="white" transform="translate(0.55835 0.369141)"/>
    </clipPath>
  </defs>
</svg>