<svg xmlns="http://www.w3.org/2000/svg" width="37" height="41" viewBox="0 0 37 41" fill="none">
  <g clip-path="url(#clip0_408_470)">
    <path d="M34.1662 20.0157C34.1697 19.4953 34.0625 18.9801 33.8519 18.5041C33.6413 18.0282 33.332 17.6024 32.9445 17.255C32.557 16.9075 32.1001 16.6464 31.6041 16.4888C31.1081 16.3312 30.5842 16.2808 30.0672 16.3408L35.1556 1.21716H13.3888L18.4771 16.3408C17.9713 16.3018 17.4629 16.3679 16.9838 16.5351C16.5048 16.7022 16.0656 16.9667 15.6938 17.3119C15.3221 17.6571 15.0258 18.0756 14.8237 18.5409C14.6216 19.0063 14.518 19.5084 14.5195 20.0157C14.5195 21.7119 15.6503 23.1253 17.205 23.5493C15.3353 26.7194 12.4451 29.1612 9.00716 30.4751C6.74568 29.3444 5.75628 26.6589 6.60434 24.3974L7.02837 23.6907C7.84562 23.4946 8.57099 23.0243 9.08353 22.3583C9.59607 21.6922 9.86482 20.8706 9.84498 20.0304C9.82514 19.1902 9.5179 18.3821 8.97448 17.741C8.43107 17.0999 7.68431 16.6644 6.85871 16.5071C6.03311 16.3499 5.17855 16.4804 4.4375 16.8768C3.69645 17.2733 3.11368 17.9118 2.78635 18.6859C2.45903 19.46 2.40692 20.3228 2.63872 21.1307C2.87051 21.9385 3.37221 22.6425 4.06017 23.1253C3.07077 25.1041 1.79868 27.3656 1.37466 29.9097C0.809284 32.8779 1.37466 36.1288 3.91883 37.9663C10.1379 42.2066 16.781 35.4221 23.7068 33.5847C26.251 33.0193 29.0778 33.1606 31.3393 31.7472C33.0354 30.8991 34.1662 29.203 34.4489 27.3656C34.7315 25.6695 34.3075 23.832 33.1768 22.4186C33.7421 21.7119 34.1662 20.8638 34.1662 20.0157Z" fill="#99425B"/>
    <path d="M33.6008 27.2243C33.3181 28.779 32.3287 30.1925 30.9153 31.0405C29.5018 31.7472 27.9471 32.0299 26.251 32.3126L23.5654 32.7366C21.1626 33.302 18.7598 34.4327 16.4983 35.5635C11.9753 37.825 8.15908 39.8038 4.48417 37.2596C1.79865 35.4221 1.94 31.8886 2.22268 30.0511C2.50537 28.355 3.35342 26.6589 4.06014 25.1041L4.48417 24.3974L5.61491 24.6801C4.90819 27.2243 6.03894 29.9098 8.58311 31.3232L9.00713 31.4645L9.28982 31.3232C11.41 30.6165 13.2474 29.4857 14.8022 27.931C15.9329 26.9416 16.781 25.8108 17.629 24.5388C18.8462 24.7002 20.0778 24.3752 21.0569 23.6343C22.0359 22.8934 22.6834 21.7963 22.8587 20.5812H25.8269C25.9338 21.3645 26.238 22.1079 26.711 22.7414C27.1839 23.3749 27.8102 23.8778 28.5309 24.2028C29.2516 24.5278 30.0431 24.6643 30.8311 24.5995C31.619 24.5346 32.3775 24.2705 33.0354 23.832C33.6008 24.8214 33.7421 26.0935 33.6008 27.2243ZM6.18028 17.1889C6.93001 17.1889 7.64903 17.4868 8.17917 18.0169C8.70931 18.547 9.00713 19.2661 9.00713 20.0158C9.00713 20.7655 8.70931 21.4845 8.17917 22.0147C7.64903 22.5448 6.93001 22.8426 6.18028 22.8426C5.43055 22.8426 4.71153 22.5448 4.18139 22.0147C3.65125 21.4845 3.35342 20.7655 3.35342 20.0158C3.35342 19.2661 3.65125 18.547 4.18139 18.0169C4.71153 17.4868 5.43055 17.1889 6.18028 17.1889ZM15.5089 20.0158C15.5089 19.2661 15.8067 18.547 16.3369 18.0169C16.867 17.4868 17.586 17.1889 18.3358 17.1889C19.0855 17.1889 19.8045 17.4868 20.3346 18.0169C20.8648 18.547 21.1626 19.2661 21.1626 20.0158C21.1626 20.7655 20.8648 21.4845 20.3346 22.0147C19.8045 22.5448 19.0855 22.8426 18.3358 22.8426C17.586 22.8426 16.867 22.5448 16.3369 22.0147C15.8067 21.4845 15.5089 20.7655 15.5089 20.0158ZM27.2404 16.6236C26.5336 17.1889 26.1096 18.037 25.9683 18.7437H22.7174C22.576 17.8956 22.0107 17.1889 21.304 16.6236L24.2722 10.6872L27.2404 16.6236ZM14.6608 2.2066H33.8835L29.3605 15.4928L28.7951 15.6342L24.2722 6.58822L19.7492 15.6342L19.1838 15.4928L14.6608 2.2066ZM33.1767 20.0158C33.1767 20.7655 32.8789 21.4845 32.3488 22.0147C31.8186 22.5448 31.0996 22.8426 30.3499 22.8426C29.7908 22.8426 29.2442 22.6768 28.7794 22.3662C28.3145 22.0556 27.9522 21.6141 27.7382 21.0976C27.5243 20.581 27.4683 20.0126 27.5774 19.4643C27.6864 18.9159 27.9557 18.4122 28.351 18.0169C28.7463 17.6216 29.25 17.3523 29.7984 17.2432C30.3468 17.1342 30.9151 17.1902 31.4317 17.4041C31.9482 17.6181 32.3897 17.9804 32.7003 18.4453C33.011 18.9101 33.1767 19.4567 33.1767 20.0158ZM35.0142 20.0158C35.0142 17.7543 33.3181 15.9168 31.1979 15.4928L36.4276 0.369141H12.1167L17.3464 15.4928C16.4435 15.6857 15.6181 16.1421 14.9748 16.8044C14.3315 17.4667 13.8993 18.305 13.7328 19.2131C13.5663 20.1213 13.6731 21.0584 14.0396 21.9058C14.4061 22.7532 15.0158 23.4728 15.7916 23.9734C14.1419 26.4011 11.8388 28.3122 9.14848 29.4857C7.45236 28.355 6.74565 26.5176 7.45236 24.8214L7.59371 24.6801L7.73505 24.3974C8.69467 24.0724 9.52235 23.4437 10.0929 22.6065C10.6635 21.7693 10.946 20.769 10.8977 19.757C10.8493 18.745 10.4727 17.7762 9.82491 16.9972C9.17708 16.2183 8.29322 15.6714 7.30698 15.4393C6.32074 15.2073 5.28576 15.3027 4.35855 15.711C3.43133 16.1194 2.6623 16.8186 2.16776 17.7029C1.67321 18.5872 1.48004 19.6084 1.61746 20.6123C1.75487 21.6161 2.2154 22.5478 2.9294 23.2667L2.36402 24.3974C1.65731 25.9522 0.809254 27.7896 0.385225 29.7684C-0.180146 33.726 0.809254 36.9769 3.49477 38.673C5.04954 39.8038 6.60431 40.2278 8.30042 40.2278C11.2686 40.2278 14.3782 38.673 17.3464 37.2596C19.4665 36.1289 21.728 34.9981 23.9895 34.5741L26.5336 34.0087C28.3711 33.8674 30.2085 33.5847 31.7633 32.5953C32.6202 32.1149 33.3698 31.4644 33.9662 30.6838C34.5625 29.9032 34.9931 29.0089 35.2313 28.0559C35.4696 27.1029 35.5105 26.1113 35.3517 25.1419C35.1928 24.1724 34.8375 23.2457 34.3075 22.4186C34.7315 21.7119 35.0142 20.8638 35.0142 20.0158Z" fill="white"/>
  </g>
  <defs>
    <clipPath id="clip0_408_470">
      <rect width="36.1837" height="40" fill="white" transform="translate(0.243896 0.369141)"/>
    </clipPath>
  </defs>
</svg>