<svg viewBox="0 0 162 22" fill="none">
<path d="M2 2.46588L2.92101 0.690567L0 2.46588H2ZM36.6695 2.46588H38.6695L35.7485 0.690567L36.6695 2.46588ZM19.3348 11.4589L18.4138 13.2342L19.3348 13.7121L20.2558 13.2342L19.3348 11.4589ZM34.6695 2.46588V21.5341H38.6695V2.46588H34.6695ZM4 21.5341V2.46588H0V21.5341H4ZM1.07899 4.2412L18.4138 13.2342L20.2558 9.68362L2.92101 0.690567L1.07899 4.2412ZM20.2558 13.2342L37.5906 4.2412L35.7485 0.690567L18.4138 9.68362L20.2558 13.2342Z" fill="currentColor"/>
<path d="M66.6329 11.9371H45.2504M45.2504 21.5341V2.46588H79.9199" stroke="currentColor" stroke-width="4" stroke-linejoin="bevel"/>
<path d="M86.1602 11.9371H120.83V2.46588H86.1602V21.5341" stroke="currentColor" stroke-width="4" stroke-linejoin="bevel"/>
<path d="M162 2.46588H145.3H129.177V11.0899H159.961L159.96 19.4106H127.07" stroke="currentColor" stroke-width="4" stroke-linejoin="bevel"/>
</svg>
