<svg xmlns="http://www.w3.org/2000/svg" width="41" height="41" viewBox="0 0 41 41" fill="none">
  <g clip-path="url(#clip0_408_193)">
    <mask id="mask0_408_193" style="mask-type:luminance" maskUnits="userSpaceOnUse" x="0" y="0" width="41" height="41">
      <path d="M20.2439 40.3691C31.2896 40.3691 40.2439 31.4148 40.2439 20.3691C40.2439 9.32345 31.2896 0.369141 20.2439 0.369141C9.1982 0.369141 0.243896 9.32345 0.243896 20.3691C0.243896 31.4148 9.1982 40.3691 20.2439 40.3691Z" fill="white"/>
    </mask>
    <g mask="url(#mask0_408_193)">
      <path d="M20.2439 40.3691C31.2896 40.3691 40.2439 31.4148 40.2439 20.3691C40.2439 9.32345 31.2896 0.369141 20.2439 0.369141C9.1982 0.369141 0.243896 9.32345 0.243896 20.3691C0.243896 31.4148 9.1982 40.3691 20.2439 40.3691Z" fill="black"/>
      <path d="M33.468 35.3735L15.6087 12.3691H12.2439V28.3624H14.9358V15.7879L31.3548 37.0013C32.0945 36.5062 32.8005 35.9624 33.468 35.3735Z" fill="url(#paint0_linear_408_193)"/>
      <path d="M25.7995 12.3691H28.4662V28.3691H25.7995V12.3691Z" fill="url(#paint1_linear_408_193)"/>
    </g>
  </g>
  <defs>
    <linearGradient id="paint0_linear_408_193" x1="1193" y1="1401.26" x2="1901.76" y2="2279.73" gradientUnits="userSpaceOnUse">
      <stop stop-color="white"/>
      <stop offset="1" stop-color="white" stop-opacity="0"/>
    </linearGradient>
    <linearGradient id="paint1_linear_408_193" x1="159.135" y1="12.3691" x2="154.624" y2="1187.36" gradientUnits="userSpaceOnUse">
      <stop stop-color="white"/>
      <stop offset="1" stop-color="white" stop-opacity="0"/>
    </linearGradient>
    <clipPath id="clip0_408_193">
      <rect width="40" height="40" fill="white" transform="translate(0.243896 0.369141)"/>
    </clipPath>
  </defs>
</svg>