<svg xmlns="http://www.w3.org/2000/svg" width="36" height="41" viewBox="0 0 36 41" fill="none">
  <g clip-path="url(#clip0_408_253)">
    <path d="M17.7253 40.295C17.1751 40.295 16.6616 40.1483 16.1848 39.8915L11.3063 36.9938C10.5728 36.5904 10.9396 36.4437 11.1596 36.3703C12.1499 36.0402 12.3333 35.9668 13.3603 35.3798C13.4705 35.3065 13.6172 35.3432 13.7271 35.4165L17.4685 37.654C17.6153 37.7274 17.7987 37.7274 17.9087 37.654L32.544 29.1811C32.6907 29.1077 32.764 28.961 32.764 28.7776V11.8682C32.764 11.6848 32.6907 11.5381 32.544 11.4647L17.9087 3.02829C17.762 2.95494 17.5786 2.95494 17.4685 3.02829L2.83325 11.4648C2.68654 11.5382 2.61319 11.7216 2.61319 11.8683V28.7776C2.61319 28.9243 2.68654 29.1077 2.83325 29.1811L6.83146 31.4918C8.99561 32.5922 10.3526 31.3084 10.3526 30.0247V13.3353C10.3526 13.1152 10.5361 12.8951 10.7928 12.8951H12.6636C12.8836 12.8951 13.1037 13.0785 13.1037 13.3353V30.0246C13.1037 32.9223 11.5264 34.6095 8.7754 34.6095C7.9318 34.6095 7.27159 34.6095 5.40101 33.6925L1.54952 31.4918C0.595884 30.9415 0.0090332 29.9145 0.0090332 28.8142V11.905C0.0090332 10.8046 0.595884 9.77764 1.54952 9.22732L16.1848 0.754384C17.1018 0.240889 18.3488 0.240889 19.2658 0.754384L33.9011 9.22732C34.8547 9.7775 35.4416 10.8045 35.4416 11.905V28.8143C35.4416 29.9147 34.8547 30.9416 33.9011 31.4918L19.2658 39.965C18.789 40.1851 18.2388 40.2951 17.7253 40.2951V40.295ZM22.2369 28.6675C15.8179 28.6675 14.4975 25.7332 14.4975 23.2389C14.4975 23.0189 14.6809 22.7988 14.9376 22.7988H16.8449C17.065 22.7988 17.2485 22.9455 17.2485 23.1656C17.5419 25.1095 18.3855 26.0633 22.2735 26.0633C25.3546 26.0633 26.6752 25.3664 26.6752 23.7159C26.6752 22.7621 26.3084 22.0652 21.5033 21.5883C17.5052 21.1848 15.011 20.3046 15.011 17.1136C15.011 14.1423 17.5051 12.3818 21.6867 12.3818C26.3816 12.3818 28.6925 13.9956 28.9859 17.5169C28.9859 17.6269 28.9492 17.7369 28.8759 17.847C28.8025 17.9203 28.6925 17.9937 28.5825 17.9937H26.6752C26.4917 17.9937 26.3084 17.847 26.2716 17.6636C25.8315 15.6463 24.6944 14.9861 21.6867 14.9861C18.3123 14.9861 17.9087 16.1598 17.9087 17.0401C17.9087 18.1039 18.3855 18.4338 22.9337 19.0207C27.4454 19.6075 29.5728 20.4513 29.5728 23.6057C29.5361 26.8336 26.8953 28.6675 22.2369 28.6675Z" fill="#539E43"/>
  </g>
  <defs>
    <clipPath id="clip0_408_253">
      <rect width="35.4325" height="40" fill="white" transform="translate(0.0090332 0.369141)"/>
    </clipPath>
  </defs>
</svg>