<svg xmlns="http://www.w3.org/2000/svg" width="45" height="41" viewBox="0 0 45 41" fill="none">
  <g clip-path="url(#clip0_408_163)">
    <path d="M37.0236 13.3207C36.5457 13.1567 36.0637 13.0048 35.578 12.8651C35.6596 12.5317 35.7347 12.2024 35.8014 11.8789C36.8958 6.56648 36.1803 2.28665 33.7366 0.877531C31.3936 -0.473346 27.5619 0.93525 23.6921 4.30314C23.3107 4.63566 22.9377 4.97776 22.5736 5.32911C22.3299 5.09547 22.0818 4.86637 21.8296 4.64192C17.7738 1.04086 13.7086 -0.476855 11.2675 0.936303C8.92663 2.29139 8.23347 6.31472 9.21873 11.3495C9.31675 11.8481 9.42743 12.3442 9.55066 12.8372C8.97522 13.0007 8.41996 13.1747 7.88856 13.36C3.13347 15.0179 0.0968018 17.6159 0.0968018 20.3109C0.0968018 23.0942 3.3568 25.886 8.30943 27.5788C8.71095 27.7154 9.11582 27.8421 9.52364 27.9586C9.39119 28.4896 9.2736 29.0242 9.17101 29.5617C8.23171 34.5091 8.96522 38.4374 11.2998 39.7838C13.711 41.1744 17.758 39.7453 21.6986 36.3005C22.0181 36.0205 22.3306 35.7325 22.6357 35.4368C23.0301 35.8173 23.4349 36.1867 23.8498 36.5445C27.667 39.8291 31.4368 41.1554 33.7691 39.8052C36.178 38.4107 36.961 34.1907 35.9445 29.0565C35.8644 28.6542 35.7747 28.254 35.6752 27.8561C35.9594 27.7719 36.2384 27.6852 36.5103 27.5951C41.6591 25.8893 45.0091 23.1314 45.0091 20.3109C45.0091 17.6061 41.8743 14.9905 37.0236 13.3207ZM35.907 25.774C35.6614 25.8552 35.4094 25.9337 35.1526 26.01C34.5842 24.2105 33.8172 22.2972 32.8784 20.3202C33.7742 18.3903 34.5117 16.5014 35.0642 14.7137C35.5236 14.8467 35.9694 14.9868 36.3993 15.1347C40.5554 16.5656 43.0905 18.6809 43.0905 20.3109C43.0905 22.047 40.3526 24.3009 35.907 25.774ZM34.0624 29.4291C34.5119 31.6993 34.5759 33.7519 34.2782 35.3567C34.0108 36.7986 33.4729 37.7598 32.8077 38.1449C31.3924 38.9642 28.3656 37.8993 25.1012 35.0902C24.7153 34.7574 24.3387 34.414 23.9719 34.0603C25.2375 32.6763 26.5022 31.0674 27.7366 29.2803C29.9079 29.0877 31.9591 28.7726 33.8193 28.3426C33.9108 28.7123 33.9922 29.0747 34.0624 29.4291ZM15.4084 38.0033C14.0256 38.4916 12.9242 38.5056 12.2584 38.1217C10.8417 37.3047 10.2528 34.1505 11.0561 29.9196C11.1516 29.4197 11.2609 28.9225 11.384 28.4286C13.2236 28.8356 15.26 29.1282 17.4363 29.3047C18.6791 31.0533 19.9803 32.6605 21.2917 34.0679C21.013 34.3376 20.7277 34.6003 20.4361 34.8559C18.6935 36.3791 16.9473 37.4598 15.4084 38.0033ZM8.93013 25.7633C6.74013 25.0147 4.93154 24.0419 3.69189 22.9803C2.57785 22.0265 2.01557 21.0793 2.01557 20.3109C2.01557 18.6754 4.45364 16.5895 8.52013 15.1717C9.01364 14.9998 9.53014 14.8375 10.0661 14.6852C10.6282 16.5133 11.3654 18.4247 12.255 20.3575C11.3538 22.3189 10.6061 24.2609 10.0386 26.1105C9.66629 26.0039 9.29671 25.8881 8.93013 25.7633ZM11.1017 10.9809C10.2577 6.66736 10.8182 3.4135 12.2289 2.59683C13.7314 1.727 17.0538 2.96718 20.5557 6.07665C20.7841 6.27988 21.0088 6.48722 21.2296 6.69858C19.9247 8.09981 18.6354 9.69507 17.4036 11.4333C15.2914 11.6291 13.2694 11.9435 11.4105 12.3647C11.296 11.9062 11.193 11.4446 11.1017 10.9809ZM30.4749 15.7647C30.0358 15.0063 29.5804 14.2574 29.1091 13.5186C30.5421 13.6998 31.915 13.9403 33.2043 14.2344C32.8173 15.4751 32.3349 16.7721 31.767 18.1019C31.3519 17.3143 30.9211 16.5351 30.4749 15.7647ZM22.5745 8.06981C23.4594 9.02858 24.3458 10.0989 25.2175 11.2603C23.4491 11.1768 21.6777 11.1765 19.9093 11.2593C20.7819 10.1086 21.6757 9.03964 22.5745 8.06981ZM14.6235 15.7779C14.1828 16.5421 13.7601 17.3164 13.3556 18.1003C12.797 16.7752 12.3189 15.4723 11.9286 14.214C13.21 13.9274 14.5765 13.693 16.0003 13.5151C15.5237 14.2584 15.0646 15.013 14.6235 15.7779ZM16.0412 27.2431C14.5701 27.0789 13.1831 26.8567 11.9021 26.5777C12.2986 25.297 12.7872 23.9663 13.3579 22.6128C13.764 23.3973 14.1885 24.1721 14.631 24.9367C15.0861 25.7226 15.5573 26.4924 16.0412 27.2431ZM22.6275 32.687C21.718 31.706 20.811 30.6205 19.9252 29.4531C20.7852 29.4868 21.6619 29.504 22.5529 29.504C23.4684 29.504 24.3733 29.4835 25.264 29.4438C24.3894 30.6323 23.5065 31.7193 22.6275 32.687ZM31.785 22.5437C32.3854 23.9121 32.8914 25.2358 33.2931 26.4945C31.991 26.7917 30.585 27.031 29.1036 27.2088C29.5783 26.4562 30.038 25.6943 30.4824 24.9235C30.9342 24.14 31.3685 23.3465 31.785 22.5437ZM28.8205 23.9649C28.1402 25.1467 27.4216 26.3061 26.6659 27.4412C25.2971 27.5382 23.9252 27.5863 22.5529 27.5856C21.1552 27.5856 19.7957 27.5421 18.4866 27.4572C17.7112 26.3247 16.979 25.1633 16.2914 23.9754C15.607 22.7939 14.968 21.5867 14.3752 20.3567C14.9664 19.1263 15.6037 17.9186 16.2857 16.7361L16.2856 16.7363C16.9673 15.5535 17.6938 14.3971 18.4633 13.2695C19.7989 13.1684 21.1686 13.1158 22.5528 13.1158C23.9433 13.1158 25.3149 13.1689 26.6501 13.2707C27.4119 14.3966 28.1337 15.5491 28.8142 16.726C29.4985 17.9058 30.1442 19.1076 30.7503 20.3295C30.1504 21.5638 29.5067 22.7764 28.8205 23.9649ZM32.7784 2.53964C34.2822 3.407 34.8672 6.90472 33.9222 11.4916C33.8619 11.7842 33.7942 12.0823 33.7205 12.3845C31.857 11.9544 29.8336 11.6345 27.7152 11.4358C26.4812 9.67841 25.2024 8.08069 23.9187 6.69753C24.2552 6.37323 24.5996 6.05735 24.9517 5.75016C28.2675 2.86472 31.3665 1.72543 32.7784 2.53964ZM22.5529 16.3003C24.7679 16.3003 26.5635 18.096 26.5635 20.3109C26.5635 22.5258 24.7679 24.3214 22.5529 24.3214C20.338 24.3214 18.5424 22.5258 18.5424 20.3109C18.5424 18.096 20.338 16.3003 22.5529 16.3003Z" fill="#00D8FF"/>
  </g>
  <defs>
    <clipPath id="clip0_408_163">
      <rect width="44.9123" height="40" fill="white" transform="translate(0.0968018 0.369141)"/>
    </clipPath>
  </defs>
</svg>