<svg xmlns="http://www.w3.org/2000/svg" width="67" height="41" viewBox="0 0 67 41" fill="none">
  <g clip-path="url(#clip0_408_475)">
    <path d="M33.6744 0.369141C24.8087 0.369141 19.2674 4.80213 17.051 13.6678C20.3757 9.23486 24.2544 7.57252 28.6874 8.68083C31.2164 9.31304 33.0242 11.1481 35.0253 13.179C38.285 16.4878 42.0575 20.3172 50.2977 20.3172C59.1635 20.3172 64.7048 15.8842 66.9211 7.01849C63.5964 11.4515 59.7177 13.1138 55.2848 12.0055C52.7557 11.3733 50.9479 9.53823 48.9468 7.50732C45.6871 4.19849 41.9146 0.369141 33.6744 0.369141ZM17.051 20.3172C8.18528 20.3172 2.64398 24.7502 0.427612 33.6159C3.75229 29.1829 7.63099 27.5206 12.064 28.6289C14.5931 29.2611 16.4009 31.0962 18.4019 33.1271C21.6616 36.4359 25.4341 40.2652 33.6744 40.2652C42.5401 40.2652 48.0814 35.8323 50.2977 26.9665C46.9731 31.3995 43.0944 33.0619 38.6614 31.9536C36.1323 31.3213 34.3245 29.4863 32.3235 27.4554C29.0637 24.1465 25.2912 20.3172 17.051 20.3172Z" fill="url(#paint0_linear_408_475)"/>
  </g>
  <defs>
    <linearGradient id="paint0_linear_408_475" x1="-184.291" y1="1277.04" x2="5558.51" y2="4588.24" gradientUnits="userSpaceOnUse">
      <stop stop-color="#2298BD"/>
      <stop offset="1" stop-color="#0ED7B5"/>
    </linearGradient>
    <clipPath id="clip0_408_475">
      <rect width="66.4935" height="40" fill="white" transform="translate(0.427612 0.369141)"/>
    </clipPath>
  </defs>
</svg>