<svg xmlns="http://www.w3.org/2000/svg" width="41" height="41" viewBox="0 0 41 41" fill="none">
  <g clip-path="url(#clip0_408_255)">
    <path d="M39.2767 16.591C40.2611 20.4238 36.0345 24.9113 30.747 23.6395C37.4814 18.7426 34.4033 12.4691 30.8439 9.45977C26.9845 6.19727 30.7204 5.15039 31.9658 6.3332C31.9345 3.94883 23.5423 4.48789 30.8829 12.1426C34.6548 16.0738 30.2064 24.7723 24.9048 18.1582C24.8611 18.0988 24.822 18.0348 24.7861 17.9707C25.6423 17.6145 26.3454 16.6473 26.3454 15.0551C26.3533 14.4926 26.2423 13.9332 26.0173 13.4145C26.6298 12.1676 27.1923 10.677 27.1923 8.80977C27.1923 4.34727 24.297 0.369141 20.2423 0.369141C16.1876 0.369141 13.2923 4.34727 13.2923 8.80977C13.2923 10.677 13.8564 12.1691 14.4689 13.4176C14.2434 13.9352 14.1315 14.4952 14.1408 15.0598C14.1408 16.6535 14.8423 17.6191 15.7001 17.9754C15.6642 18.0395 15.6236 18.1035 15.5798 18.1629C10.2783 24.777 5.82826 16.077 9.6017 12.1473C16.9454 4.49102 8.54857 3.95508 8.51732 6.33789C9.76264 5.15664 13.5001 6.20352 9.6392 9.46445C6.08139 12.466 3.00482 18.741 9.73607 23.6441C4.45013 24.916 0.225135 20.4285 1.20639 16.5973C-0.50924 19.7551 0.762635 25.7301 7.57201 26.8832C0.32201 28.5457 2.50482 38.5551 7.60795 36.9535C3.23139 36.6957 3.71732 31.6582 5.48764 30.141C7.44701 28.4629 9.92357 29.6457 14.4408 28.8895C14.3908 32.9551 18.3501 35.1395 16.2736 37.4676C14.0736 39.9332 11.0611 37.2707 11.5251 34.8488C9.42514 39.1973 15.4064 42.6566 18.0283 37.6066C20.0486 33.7223 14.6798 26.7082 20.2392 26.7082C25.7986 26.7082 20.4283 33.7145 22.4501 37.6066C25.072 42.6629 31.0533 39.1973 28.9533 34.8488C29.4126 37.2723 26.4064 39.9332 24.2064 37.4691C22.1392 35.1332 26.0876 32.9488 26.0454 28.8832C30.5595 29.6395 33.0361 28.4551 34.9923 30.1348C36.7673 31.652 37.2517 36.6895 32.8751 36.9473C37.9861 38.5566 40.1658 28.5441 32.9142 26.877C39.7189 25.7254 40.9923 19.7488 39.2767 16.591Z" fill="url(#paint0_radial_408_255)"/>
    <path d="M5.57203 30.4457C7.52985 28.766 9.77672 30.2347 14.4439 28.8832C14.4439 28.8832 14.5095 27.6347 14.5689 26.7097C13.147 27.78 10.547 27.641 8.37672 27.9597C1.2361 29.0066 2.82047 37.5847 7.60797 36.9535C4.06578 36.3722 3.80016 31.9628 5.57203 30.4457Z" fill="url(#paint1_linear_408_255)"/>
    <path d="M14.8439 24.2972C15.633 23.0753 15.7314 21.1082 14.1345 22.8972C8.73921 28.9441 -0.623289 24.0035 1.21109 16.5925C-0.763914 19.2753 0.184523 26.2832 7.57671 26.8785C9.43296 26.2613 13.2533 26.7378 14.8423 24.2972H14.8439Z" fill="url(#paint2_linear_408_255)"/>
    <path d="M9.73766 23.6395C9.73766 23.6395 11.633 23.4457 12.8627 22.002C7.86578 23.8598 3.76735 15.802 10.0189 10.3551C14.8798 6.12385 9.93141 4.4551 8.51266 6.33322C9.0361 5.81603 13.272 6.10822 9.4111 9.37228C5.85953 12.3817 2.09547 18.6285 9.73766 23.6395Z" fill="url(#paint3_radial_408_255)"/>
    <path d="M23.8361 38.2832C21.7548 35.9551 23.8361 33.8519 24.2173 30.1832C24.4704 27.7082 23.5454 24.9691 20.2439 24.9691C16.9408 24.9691 16.0158 27.7129 16.2704 30.1832C16.647 33.8519 18.7314 35.9551 16.6517 38.2832C14.4533 40.7457 10.3423 38.1785 11.5298 34.8426C8.60638 39.6972 16.0267 42.7191 18.6486 37.6707C20.6673 33.7863 14.6845 26.9754 20.2439 26.9754C25.8033 26.9754 19.822 33.7863 21.8392 37.6722C24.4611 42.7191 31.8798 39.6972 28.9564 34.8441C30.1439 38.1785 26.0345 40.7441 23.8361 38.2832Z" fill="url(#paint4_radial_408_255)"/>
    <path d="M32.1111 27.9597C29.9392 27.6441 27.3376 27.78 25.9189 26.7097C25.9814 27.6347 26.0439 28.8847 26.0439 28.8847C30.7095 30.2347 32.9564 28.7644 34.9142 30.4457C36.6861 31.9613 36.4204 36.3722 32.872 36.9457C37.6658 37.5863 39.2533 29.0066 32.1111 27.9613V27.9597Z" fill="url(#paint5_linear_408_255)"/>
    <path d="M39.2767 16.5911C41.1111 24.0004 31.7486 28.9426 26.3517 22.8942C24.7548 21.1036 24.8486 23.0739 25.6439 24.2958C27.2345 26.7379 31.0533 26.2598 32.9095 26.877C40.3033 26.2833 41.2517 19.2723 39.2767 16.5911Z" fill="url(#paint6_linear_408_255)"/>
    <path d="M27.6267 22.002C28.8548 23.4457 30.7486 23.6395 30.7486 23.6395C38.3892 18.6348 34.6267 12.3801 31.0642 9.37228C27.2033 6.10822 31.4392 5.81603 31.9626 6.33322C30.5408 4.4551 25.5955 6.12385 30.4564 10.3551C36.7189 15.802 32.6205 23.8598 27.6267 22.002Z" fill="url(#paint7_radial_408_255)"/>
    <path opacity="0.3" d="M22.297 5.92227C22.297 7.15352 20.2439 7.15352 20.2439 5.92227C20.2439 4.68946 22.297 4.69102 22.297 5.92227ZM19.0627 7.05039C19.0627 7.89727 17.6533 7.89727 17.6533 7.05039C17.6533 6.20196 19.0642 6.20196 19.0642 7.05039H19.0627ZM19.9642 3.14727C19.9642 3.99727 18.5517 3.99727 18.5517 3.14727C18.5517 2.29727 19.9642 2.30508 19.9642 3.14727ZM17.0252 9.16758C17.0252 9.59258 16.3189 9.59258 16.3189 9.16758C16.3189 8.74258 17.0252 8.74258 17.0252 9.16758ZM17.1595 4.99727C17.1595 5.58477 16.183 5.58477 16.183 4.99727C16.183 4.40977 17.1595 4.41133 17.1595 4.99727ZM19.9627 10.166C19.9627 10.7551 18.9861 10.7551 18.9861 10.166C18.9861 9.57696 19.9627 9.58164 19.9627 10.166Z" fill="#4B1313"/>
    <path d="M17.7361 15.0567C17.7361 17.2958 15.1954 17.2958 15.1954 15.0567C15.1954 12.8161 17.7361 12.8161 17.7361 15.0567Z" fill="#302D3B"/>
    <path d="M16.4345 14.4847C16.4345 14.5883 16.3934 14.6877 16.3201 14.761C16.2468 14.8342 16.1475 14.8754 16.0439 14.8754C15.9403 14.8754 15.8409 14.8342 15.7677 14.761C15.6944 14.6877 15.6533 14.5883 15.6533 14.4847C15.6533 14.3811 15.6944 14.2818 15.7677 14.2085C15.8409 14.1353 15.9403 14.0941 16.0439 14.0941C16.1475 14.0941 16.2468 14.1353 16.3201 14.2085C16.3934 14.2818 16.4345 14.3811 16.4345 14.4847Z" fill="#6F828A"/>
    <path d="M25.2986 15.0567C25.2986 17.2958 22.7579 17.2958 22.7579 15.0567C22.7579 12.8161 25.2986 12.8161 25.2986 15.0567Z" fill="#302D3B"/>
    <path d="M23.9892 14.4847C23.9892 14.5883 23.948 14.6877 23.8748 14.761C23.8015 14.8342 23.7022 14.8754 23.5986 14.8754C23.495 14.8754 23.3956 14.8342 23.3224 14.761C23.2491 14.6877 23.2079 14.5883 23.2079 14.4847C23.2079 14.3811 23.2491 14.2818 23.3224 14.2085C23.3956 14.1353 23.495 14.0941 23.5986 14.0941C23.7022 14.0941 23.8015 14.1353 23.8748 14.2085C23.948 14.2818 23.9892 14.3811 23.9892 14.4847Z" fill="#6F828A"/>
    <path d="M19.0642 19.5129C19.0642 20.7895 18.9579 21.8238 18.8361 21.8238C18.7142 21.8238 18.6173 20.7895 18.6173 19.5145C18.6204 18.241 18.7251 17.2051 18.847 17.2051C18.972 17.2051 19.0657 18.2363 19.0642 19.5129Z" fill="#9E1C20"/>
    <path d="M20.2845 22.2238C20.3768 22.2238 20.4517 21.0094 20.4517 19.5113C20.4517 18.0133 20.3768 16.7988 20.2845 16.7988C20.1922 16.7988 20.1173 18.0133 20.1173 19.5113C20.1173 21.0094 20.1922 22.2238 20.2845 22.2238Z" fill="#9E1C20"/>
    <path d="M21.8689 19.4833C21.8689 20.7286 21.7658 21.7379 21.647 21.7379C21.5267 21.7379 21.4361 20.7317 21.4376 19.4848C21.4392 18.2395 21.5423 17.2317 21.6595 17.2317C21.7767 17.2317 21.872 18.2395 21.8673 19.4833H21.8689Z" fill="#9E1C20"/>
    <path d="M31.3439 23.041C31.083 22.6941 32.6095 21.5473 32.8736 21.8957C33.1392 22.2441 31.6048 23.3894 31.3439 23.041Z" fill="#F389A4"/>
    <path d="M31.7236 22.8254C31.6048 22.6691 32.4407 22.0363 32.5611 22.1941C32.6814 22.3519 31.8423 22.9863 31.7236 22.8254Z" fill="#E34E70"/>
    <path d="M32.2486 21.5128C31.9314 21.2097 33.0923 20.0175 33.4048 20.3207C33.7173 20.6238 32.5548 21.8175 32.2486 21.5128Z" fill="#F389A4"/>
    <path d="M32.5455 21.2816C32.4017 21.141 33.0361 20.491 33.1767 20.6285C33.3173 20.766 32.6877 21.4207 32.5455 21.2816Z" fill="#E34E70"/>
    <path d="M33.8924 19.3004C33.4752 19.1722 33.9595 17.5816 34.3767 17.7097C34.7939 17.8379 34.3017 19.4285 33.8924 19.3004Z" fill="#F7B3C5"/>
    <path d="M34.0548 18.9566C33.8642 18.8973 34.1314 18.0285 34.3189 18.0848C34.5064 18.1426 34.2423 19.0145 34.0548 18.9566Z" fill="#E34E70"/>
    <path d="M29.6267 22.9832C29.4408 22.5879 31.1174 21.8035 31.3002 22.202C31.483 22.5973 29.8095 23.377 29.6267 22.9832Z" fill="#F389A4"/>
    <path d="M30.0361 22.8566C29.9532 22.6738 30.8673 22.2472 30.9532 22.4269C31.0376 22.6066 30.1095 23.0363 30.0361 22.8566Z" fill="#E34E70"/>
    <path d="M33.8267 20.7286C33.4627 20.4942 34.3658 19.0973 34.7299 19.3348C35.0924 19.5739 34.1955 20.9676 33.8267 20.7301V20.7286Z" fill="#F7B3C5"/>
    <path d="M34.0814 20.4441C33.9142 20.3347 34.4095 19.5722 34.5752 19.6785C34.7408 19.7878 34.247 20.5519 34.0814 20.4441Z" fill="#E34E70"/>
    <path d="M27.0845 25.2301C27.2533 24.7989 28.822 25.4176 28.6627 25.8504C28.5064 26.2833 26.9127 25.6629 27.0845 25.2301Z" fill="#F389A4"/>
    <path d="M27.4189 25.4223C27.497 25.2238 28.3564 25.5629 28.2814 25.7598C28.2064 25.9551 27.3408 25.6238 27.4189 25.4223Z" fill="#E34E70"/>
    <path d="M29.2939 25.7379C29.4126 25.1988 31.0314 25.5582 30.9142 26.0972C30.7986 26.6347 29.1736 26.2769 29.2939 25.7379Z" fill="#F389A4"/>
    <path d="M29.647 25.8957C29.7017 25.6472 30.5939 25.8457 30.5345 26.0894C30.4736 26.3347 29.5908 26.1332 29.647 25.8957Z" fill="#E34E70"/>
    <path d="M25.7126 23.3535C26.1111 22.916 27.4783 24.1613 27.0829 24.5972C26.6861 25.0332 25.3158 23.791 25.7142 23.3535H25.7126Z" fill="#F389A4"/>
    <path d="M25.9721 23.6833C26.1564 23.4833 26.9033 24.1661 26.7221 24.3645C26.5392 24.5645 25.7908 23.8911 25.9721 23.6833Z" fill="#E34E70"/>
    <path d="M31.4751 26.3425C31.4751 25.9675 32.8783 25.9957 32.8705 26.3707C32.8626 26.7457 31.4658 26.7207 31.4751 26.3425Z" fill="#F7B3C5"/>
    <path d="M31.7877 26.3972C31.7877 26.2253 32.5533 26.241 32.5533 26.4097C32.5517 26.5816 31.7845 26.5691 31.7877 26.3972Z" fill="#E34E70"/>
    <path d="M26.2954 27.8222C26.4126 27.2847 28.0329 27.6426 27.9173 28.1816C27.8017 28.7207 26.1767 28.3613 26.2954 27.8222Z" fill="#F389A4"/>
    <path d="M26.647 27.9723C26.7017 27.7254 27.5955 27.9207 27.5345 28.1676C27.4752 28.4129 26.5923 28.216 26.647 27.9723Z" fill="#E34E70"/>
    <path d="M19.2595 26.0644C19.2595 25.5129 21.2205 25.4863 21.2283 26.0394C21.2361 26.5926 19.2658 26.6176 19.2595 26.0644Z" fill="#F389A4"/>
    <path d="M19.7048 26.1301C19.7048 25.877 20.7783 25.8629 20.783 26.1145C20.7876 26.3645 19.708 26.3801 19.7048 26.1301Z" fill="#E34E70"/>
    <path d="M21.8002 26.7254C22.183 26.3285 23.3783 27.4895 22.9877 27.8848C22.5986 28.2785 21.4158 27.1207 21.8002 26.7254Z" fill="#F389A4"/>
    <path d="M22.0189 27.0378C22.197 26.8566 22.847 27.491 22.6736 27.6691C22.5002 27.8472 21.8455 27.216 22.0189 27.0378Z" fill="#E34E70"/>
    <path d="M23.7002 28.2942C24.2502 28.3239 24.158 29.9832 23.6064 29.9536C23.0548 29.9239 23.1486 28.2661 23.7002 28.2942Z" fill="#F7B3C5"/>
    <path d="M23.608 28.666C23.8611 28.6785 23.8111 29.5878 23.5611 29.5722C23.3111 29.5582 23.358 28.6503 23.608 28.666Z" fill="#E34E70"/>
    <path d="M22.7533 29.9691C23.2939 30.08 22.9626 31.7066 22.422 31.6019C21.8814 31.4957 22.2142 29.8613 22.7533 29.9691Z" fill="#F7B3C5"/>
    <path d="M22.6126 30.3192C22.8611 30.3708 22.6798 31.2661 22.433 31.2129C22.1861 31.1598 22.3658 30.2754 22.6126 30.3192Z" fill="#E34E70"/>
    <path d="M23.2877 31.7019C23.8283 31.8128 23.4955 33.4394 22.9564 33.3331C22.4158 33.2253 22.747 31.5941 23.2877 31.7019Z" fill="#F7B3C5"/>
    <path d="M23.1439 32.0566C23.3923 32.1066 23.2111 33.0035 22.9642 32.9488C22.7157 32.8941 22.8986 32.005 23.1439 32.0566Z" fill="#E34E70"/>
    <path d="M22.0501 33.5098C22.5892 33.6192 22.2595 35.2473 21.7189 35.1379C21.1783 35.0286 21.5079 33.3989 22.0501 33.5098Z" fill="#F7B3C5"/>
    <path d="M21.9049 33.8629C22.1549 33.916 21.9736 34.8113 21.7267 34.7566C21.4814 34.7004 21.6642 33.8129 21.9049 33.8629Z" fill="#E34E70"/>
    <path d="M22.3579 35.4161C22.9064 35.4348 22.8454 37.0973 22.2954 37.077C21.7423 37.0567 21.8048 35.3942 22.3579 35.4145V35.4161Z" fill="#F7B3C5"/>
    <path d="M22.272 35.7895C22.5267 35.8004 22.4908 36.7082 22.2408 36.6989C21.9892 36.6895 22.022 35.7801 22.272 35.7895Z" fill="#E34E70"/>
    <path d="M22.0829 37.7692C22.5111 37.4208 23.3876 38.502 22.9579 38.8489C22.5283 39.1973 21.6548 38.1145 22.0829 37.7692Z" fill="#F7B3C5"/>
    <path d="M22.2267 38.0598C22.4236 37.9019 22.9017 38.4926 22.7002 38.6504C22.497 38.8066 22.0314 38.2176 22.2267 38.0598Z" fill="#E34E70"/>
    <path d="M23.5252 38.791C23.747 38.391 24.7595 38.9504 24.5377 39.3489C24.3158 39.7457 23.3049 39.1926 23.5267 38.7926L23.5252 38.791Z" fill="#F389A4"/>
    <path d="M23.7267 38.9692C23.8282 38.7848 24.3798 39.0895 24.2814 39.2708C24.1814 39.452 23.6251 39.152 23.7267 38.9692Z" fill="#E34E70"/>
    <path d="M24.8017 40.0144C24.8361 39.5988 25.8267 39.68 25.7923 40.0957C25.758 40.5113 24.7673 40.4285 24.8017 40.0144Z" fill="#F389A4"/>
    <path d="M25.022 40.0848C25.0376 39.8941 25.5798 39.9379 25.5657 40.127C25.5501 40.316 25.0064 40.2707 25.022 40.0848Z" fill="#E34E70"/>
    <path d="M26.1892 39.7675C26.1001 39.3972 26.9783 39.1832 27.0704 39.5535C27.1626 39.9238 26.2798 40.1363 26.1892 39.7675Z" fill="#F389A4"/>
    <path d="M26.4033 39.7644C26.3642 39.5957 26.8454 39.4801 26.8876 39.6457C26.9283 39.8113 26.4408 39.9332 26.4033 39.7644Z" fill="#E34E70"/>
    <path d="M27.5189 39.7972C27.3736 39.4441 28.2127 39.0972 28.3564 39.4488C28.5002 39.8019 27.6689 40.141 27.5189 39.7972Z" fill="#F389A4"/>
    <path d="M27.7251 39.7536C27.6611 39.5973 28.1189 39.4051 28.1861 39.5629C28.2517 39.7207 27.7923 39.9161 27.7251 39.7536Z" fill="#E34E70"/>
    <path d="M28.2673 38.8582C27.9892 38.5988 28.6095 37.9348 28.8845 38.1942C29.1611 38.452 28.5455 39.1176 28.2673 38.8582Z" fill="#F389A4"/>
    <path d="M28.4423 38.7395C28.3173 38.6207 28.6533 38.2567 28.7798 38.3754C28.9048 38.4942 28.5689 38.8598 28.4423 38.7395Z" fill="#E34E70"/>
    <path d="M29.2908 37.6706C28.9251 37.566 29.1767 36.6925 29.5423 36.8003C29.9064 36.9081 29.6517 37.7785 29.2892 37.6706H29.2908Z" fill="#F389A4"/>
    <path d="M29.3923 37.4879C29.2345 37.4379 29.3642 36.9614 29.5298 37.0129C29.6955 37.0661 29.5627 37.5379 29.3923 37.4879Z" fill="#E34E70"/>
    <path d="M28.3126 29.1458C28.3595 28.5973 30.0158 28.7395 29.9658 29.2911C29.9173 29.8411 28.2626 29.6973 28.3126 29.1458Z" fill="#F389A4"/>
    <path d="M28.6798 29.2473C28.7033 28.9942 29.6064 29.0754 29.5861 29.3254C29.5626 29.5754 28.658 29.4973 28.6798 29.2473Z" fill="#E34E70"/>
    <path d="M30.2986 28.566C30.3095 28.0253 31.9705 28.0581 31.958 28.6019C31.9455 29.1456 30.2861 29.1097 30.2986 28.566Z" fill="#F7B3C5"/>
    <path d="M30.6689 28.6442C30.6689 28.3942 31.5814 28.4145 31.5767 28.6614C31.572 28.9082 30.6689 28.8957 30.6689 28.6442Z" fill="#E34E70"/>
    <path d="M32.1814 29.2535C32.2986 28.7332 33.7439 29.0629 33.6221 29.5879C33.4986 30.1113 32.0596 29.7785 32.1799 29.2535H32.1814Z" fill="#F7B3C5"/>
    <path d="M32.4908 29.3956C32.547 29.1581 33.3361 29.3394 33.2814 29.5769C33.2251 29.8128 32.4361 29.6363 32.4908 29.3956Z" fill="#E34E70"/>
    <path d="M34.1892 29.2941C34.4345 28.8191 35.6424 29.4394 35.3939 29.9254C35.147 30.4113 33.9439 29.7723 34.1892 29.2941Z" fill="#FACFDA"/>
    <path d="M34.4314 29.4957C34.5439 29.277 35.2017 29.6192 35.0924 29.8332C34.983 30.0489 34.3189 29.7129 34.4314 29.4957Z" fill="#E34E70"/>
    <path d="M35.4627 30.6614C35.8611 30.4817 36.3205 31.4958 35.9189 31.677C35.5174 31.8551 35.0595 30.8426 35.4627 30.6614Z" fill="#FACFDA"/>
    <path d="M35.5142 30.916C35.697 30.8316 35.947 31.3894 35.7674 31.4691C35.5877 31.5473 35.3299 30.9957 35.5142 30.916Z" fill="#E34E70"/>
    <path d="M36.5814 31.8848C37.0189 31.8848 37.0158 32.9988 36.5814 32.991C36.147 32.9832 36.1439 31.8848 36.5814 31.8863V31.8848Z" fill="#FACFDA"/>
    <path d="M36.5236 32.1379C36.7267 32.1379 36.7236 32.7473 36.5236 32.7473C36.3236 32.7473 36.3251 32.1379 36.5236 32.1379Z" fill="#E34E70"/>
    <path d="M36.1533 33.3207C36.5439 33.391 36.3611 34.3879 35.9689 34.3144C35.5783 34.2394 35.7611 33.2519 36.1533 33.3207Z" fill="#FACFDA"/>
    <path d="M36.0611 33.541C36.2424 33.5753 36.1408 34.1191 35.9627 34.0863C35.7846 34.0535 35.8814 33.5082 36.0611 33.541Z" fill="#E34E70"/>
    <path d="M36.197 34.7629C36.5127 34.9379 36.0642 35.7363 35.7486 35.5519C35.433 35.3676 35.8814 34.5832 36.197 34.7629Z" fill="#FACFDA"/>
    <path d="M36.0611 34.9192C36.2048 35.0004 35.9595 35.4363 35.8158 35.3551C35.672 35.2723 35.9158 34.8395 36.0611 34.9176V34.9192Z" fill="#E34E70"/>
    <path d="M35.2595 35.8238C35.4782 36.0379 34.9345 36.5957 34.7157 36.38C34.497 36.1629 35.0392 35.6082 35.2579 35.8238H35.2595Z" fill="#FACFDA"/>
    <path d="M35.1079 35.9223C35.2095 36.0207 34.9111 36.3254 34.8111 36.227C34.7126 36.1285 35.0079 35.8238 35.1079 35.9223Z" fill="#E34E70"/>
    <path d="M33.1501 26.1145C33.0251 25.5895 34.6408 25.2051 34.7673 25.7348C34.8923 26.2629 33.2767 26.6457 33.1501 26.1145Z" fill="#F7B3C5"/>
    <path d="M33.533 26.0972C33.4767 25.855 34.358 25.6456 34.4174 25.8863C34.4752 26.1253 33.5892 26.3378 33.533 26.0972Z" fill="#E34E70"/>
    <path d="M35.2204 26.2566C35.0626 25.8066 36.6298 25.2566 36.7876 25.7097C36.9439 26.1613 35.3767 26.7097 35.2204 26.2566Z" fill="#FACFDA"/>
    <path d="M35.5954 26.191C35.522 25.9816 36.3845 25.6832 36.4532 25.8895C36.5204 26.0941 35.6673 26.3973 35.5939 26.191H35.5954Z" fill="#E34E70"/>
    <path d="M36.6345 25.0754C36.3189 24.7207 37.5439 23.6036 37.8658 23.9567C38.1876 24.3114 36.9548 25.4301 36.6345 25.0754Z" fill="#FACFDA"/>
    <path d="M36.9533 24.8676C36.8064 24.7098 37.4814 24.0942 37.6251 24.2535C37.772 24.4145 37.1001 25.0285 36.9533 24.8676Z" fill="#E34E70"/>
    <path d="M38.6455 23.9316C38.2455 23.666 39.1689 22.2816 39.5673 22.5472C39.9658 22.8129 39.0392 24.1957 38.6455 23.93V23.9316Z" fill="#FACFDA"/>
    <path d="M38.9017 23.6504C38.7204 23.527 39.2267 22.7754 39.4064 22.8926C39.5861 23.0114 39.0845 23.7707 38.9017 23.6504Z" fill="#E34E70"/>
    <path d="M39.2127 21.9566C38.7627 21.7879 39.3533 20.2332 39.8002 20.4019C40.2455 20.5691 39.658 22.1285 39.2127 21.9566Z" fill="#FACFDA"/>
    <path d="M39.4001 21.6301C39.197 21.552 39.5205 20.702 39.7173 20.7786C39.9142 20.8567 39.6048 21.7051 39.4017 21.6301H39.4001Z" fill="#E34E70"/>
    <path d="M40.0376 19.8097C39.6876 19.8503 39.5532 18.6269 39.9032 18.5878C40.2548 18.5488 40.3907 19.7706 40.0376 19.8097Z" fill="#FACFDA"/>
    <path d="M40.0517 19.5301C39.8955 19.5457 39.8205 18.877 39.9783 18.8614C40.1345 18.8457 40.2126 19.5098 40.0517 19.5301Z" fill="#E34E70"/>
    <path d="M34.9752 18.0316C34.5439 17.98 34.747 16.3285 35.1783 16.3832C35.6095 16.4379 35.4064 18.0863 34.9752 18.0316Z" fill="#F7B3C5"/>
    <path d="M35.0767 17.666C34.8783 17.641 34.9892 16.7379 35.1861 16.7613C35.3814 16.7848 35.2736 17.6894 35.0767 17.666Z" fill="#E34E70"/>
    <path d="M34.3298 16.7098C33.897 16.7457 33.7626 15.0879 34.1986 15.0536C34.6345 15.0176 34.7657 16.6754 34.3298 16.7098Z" fill="#F7B3C5"/>
    <path d="M34.3548 16.3285C34.1564 16.3441 34.0845 15.4394 34.283 15.4222C34.4798 15.4051 34.5533 16.3144 34.3548 16.3285Z" fill="#E34E70"/>
    <path d="M34.7955 14.6457C34.4002 14.8285 33.7111 13.3176 34.108 13.1348C34.5033 12.9535 35.1939 14.466 34.7955 14.6457Z" fill="#F7B3C5"/>
    <path d="M34.6892 14.2817C34.5095 14.3645 34.1329 13.5395 34.3111 13.4551C34.4892 13.3723 34.872 14.2051 34.6892 14.2817Z" fill="#E34E70"/>
    <path d="M33.4814 13.43C33.1267 13.6285 32.3751 12.2769 32.7314 12.08C33.0908 11.8816 33.8408 13.2316 33.4814 13.43Z" fill="#F7B3C5"/>
    <path d="M33.3533 13.1004C33.197 13.1911 32.7814 12.4536 32.9439 12.3629C33.108 12.2692 33.522 13.0082 33.3533 13.1004Z" fill="#E34E70"/>
    <path d="M33.2377 11.7629C32.9345 12.0004 32.0627 10.8816 32.3689 10.6441C32.6767 10.4051 33.547 11.5191 33.2377 11.7629Z" fill="#F7B3C5"/>
    <path d="M33.0798 11.4785C32.9408 11.5879 32.4642 10.977 32.6064 10.8692C32.7486 10.7598 33.2205 11.3692 33.0798 11.4785Z" fill="#E34E70"/>
    <path d="M31.7752 11.0832C31.4814 11.3363 30.5564 10.2629 30.8502 10.0098C31.1439 9.75666 32.0627 10.8301 31.7736 11.0832H31.7752Z" fill="#F7B3C5"/>
    <path d="M31.5955 10.8066C31.4626 10.9254 30.9642 10.3332 31.0908 10.2223C31.2158 10.1098 31.7314 10.691 31.5955 10.8082V10.8066Z" fill="#E34E70"/>
    <path d="M31.1095 9.65044C30.8439 9.87856 30.0892 9.00044 30.3548 8.77387C30.6204 8.54575 31.3751 9.42231 31.1095 9.652V9.65044Z" fill="#F7B3C5"/>
    <path d="M30.972 9.42224C30.8502 9.52693 30.4361 9.04724 30.558 8.9488C30.6798 8.85036 31.0923 9.31911 30.972 9.42224Z" fill="#E34E70"/>
    <path d="M29.8408 9.36912C29.5439 9.54881 28.9423 8.55818 29.2423 8.37693C29.5423 8.19568 30.1423 9.18474 29.8408 9.36912Z" fill="#F389A4"/>
    <path d="M29.7439 9.12071C29.6079 9.20352 29.2783 8.6629 29.4158 8.57852C29.5501 8.49571 29.8783 9.0379 29.7439 9.12071Z" fill="#E34E70"/>
    <path d="M29.7205 8.17849C29.3876 8.27693 29.1298 7.41755 29.4658 7.31911C29.8033 7.21911 30.0517 8.07849 29.7205 8.17849Z" fill="#F389A4"/>
    <path d="M29.6986 7.97075C29.5408 8.01762 29.4064 7.54575 29.5595 7.49731C29.7126 7.44731 29.8517 7.92544 29.7001 7.97075H29.6986Z" fill="#E34E70"/>
    <path d="M28.797 7.22226C28.4689 7.10663 28.7658 6.25976 29.0939 6.37694C29.4251 6.49413 29.1267 7.34101 28.797 7.22069V7.22226Z" fill="#F389A4"/>
    <path d="M28.9064 7.04571C28.7486 6.99415 28.9189 6.53008 29.0626 6.58321C29.2095 6.6379 29.0564 7.09727 28.9064 7.04571Z" fill="#E34E70"/>
    <path d="M29.6329 6.24262C29.5767 5.89887 30.4611 5.75825 30.5173 6.10512C30.572 6.45044 29.6861 6.59106 29.6329 6.24262Z" fill="#F389A4"/>
    <path d="M29.8392 6.25508C29.8142 6.09727 30.2986 6.02227 30.3236 6.17852C30.347 6.33477 29.8642 6.41289 29.8392 6.25508Z" fill="#E34E70"/>
    <path d="M9.14545 23.041C9.40483 22.6941 7.87983 21.5473 7.6142 21.8957C7.34858 22.2441 8.88295 23.3894 9.14545 23.041Z" fill="#F389A4"/>
    <path d="M8.76419 22.8254C8.88294 22.6691 8.047 22.0363 7.92669 22.1941C7.80637 22.3519 8.64544 22.9863 8.76419 22.8254Z" fill="#E34E70"/>
    <path d="M8.23919 21.5128C8.55638 21.2097 7.39544 20.0175 7.08294 20.3207C6.77044 20.6238 7.93294 21.8175 8.23919 21.5128Z" fill="#F389A4"/>
    <path d="M7.94236 21.2816C8.08611 21.141 7.45173 20.491 7.31111 20.6285C7.17048 20.766 7.80017 21.4207 7.94236 21.2816Z" fill="#E34E70"/>
    <path d="M6.59546 19.3004C7.01265 19.1722 6.52828 17.5816 6.11109 17.7097C5.6939 17.8379 6.18609 19.4285 6.59546 19.3004Z" fill="#F7B3C5"/>
    <path d="M6.43295 18.9566C6.62358 18.8973 6.35639 18.0285 6.16889 18.0848C5.98139 18.1426 6.24545 19.0145 6.43295 18.9566Z" fill="#E34E70"/>
    <path d="M10.8626 22.9832C11.047 22.5879 9.37045 21.8035 9.18764 22.202C9.00483 22.5973 10.6783 23.377 10.8626 22.9832Z" fill="#F389A4"/>
    <path d="M10.4595 22.8566C10.5423 22.6738 9.62827 22.2472 9.54233 22.4269C9.45796 22.6066 10.3767 23.0363 10.4595 22.8566Z" fill="#E34E70"/>
    <path d="M6.66109 20.7286C7.02515 20.4942 6.12203 19.0973 5.75796 19.3348C5.39546 19.5739 6.29234 20.9676 6.66109 20.7301V20.7286Z" fill="#F7B3C5"/>
    <path d="M6.4064 20.4441C6.57359 20.3347 6.07828 19.5722 5.91265 19.6785C5.74703 19.7878 6.24078 20.5519 6.4064 20.4441Z" fill="#E34E70"/>
    <path d="M13.4783 25.1816C13.2908 24.7098 11.5142 25.4035 11.7001 25.8832C11.8876 26.3613 13.6658 25.6598 13.4767 25.1832L13.4783 25.1816Z" fill="#F389A4"/>
    <path d="M13.1001 25.402C13.0126 25.1833 12.0423 25.5614 12.1251 25.7833C12.2095 26.0067 13.1845 25.6192 13.1001 25.402Z" fill="#E34E70"/>
    <path d="M11.1939 25.7379C11.0751 25.1988 9.45638 25.5582 9.57357 26.0972C9.68919 26.6347 11.3142 26.2769 11.1939 25.7379Z" fill="#F389A4"/>
    <path d="M10.8408 25.8957C10.7861 25.6472 9.8939 25.8457 9.95327 26.0894C10.0142 26.3347 10.897 26.1332 10.8408 25.8957Z" fill="#E34E70"/>
    <path d="M14.7751 23.3535C14.3767 22.916 13.0095 24.1613 13.4048 24.5972C13.8017 25.0332 15.172 23.791 14.7736 23.3535H14.7751Z" fill="#F389A4"/>
    <path d="M14.5158 23.6833C14.3314 23.4833 13.5846 24.1661 13.7658 24.3645C13.9486 24.5645 14.697 23.8911 14.5158 23.6833Z" fill="#E34E70"/>
    <path d="M9.24548 26.3004C9.23454 25.8942 7.80173 25.9161 7.81423 26.3223C7.82829 26.7286 9.25642 26.7083 9.24548 26.3004Z" fill="#F7B3C5"/>
    <path d="M8.92358 26.3566C8.92358 26.1691 8.13452 26.1847 8.13452 26.3675C8.13452 26.5503 8.92827 26.5425 8.92358 26.3566Z" fill="#E34E70"/>
    <path d="M14.1924 27.8222C14.0752 27.2847 12.4549 27.6426 12.5705 28.1816C12.6861 28.7207 14.3111 28.3613 14.1924 27.8222Z" fill="#F389A4"/>
    <path d="M13.8408 27.9723C13.7861 27.7254 12.8924 27.9207 12.9533 28.1676C13.0127 28.4129 13.8955 28.216 13.8408 27.9723Z" fill="#E34E70"/>
    <path d="M18.7736 26.827C18.458 26.3754 17.0955 27.327 17.4126 27.7754C17.7283 28.2223 19.0892 27.2817 18.772 26.827H18.7736Z" fill="#F389A4"/>
    <path d="M18.5064 27.1003C18.3595 26.8941 17.6157 27.416 17.7595 27.6207C17.9001 27.8238 18.6486 27.3066 18.5064 27.1003Z" fill="#E34E70"/>
    <path d="M16.7877 28.2942C16.2377 28.3239 16.3298 29.9832 16.8814 29.9536C17.433 29.9239 17.3392 28.2661 16.7877 28.2942Z" fill="#F7B3C5"/>
    <path d="M16.8799 28.666C16.6267 28.6785 16.6767 29.5878 16.9267 29.5722C17.1767 29.5582 17.1299 28.6503 16.8799 28.666Z" fill="#E34E70"/>
    <path d="M17.7345 29.9691C17.1939 30.08 17.5252 31.7066 18.0658 31.6019C18.6064 31.4957 18.2736 29.8613 17.7345 29.9691Z" fill="#F7B3C5"/>
    <path d="M17.8752 30.3192C17.6267 30.3708 17.808 31.2661 18.0549 31.2129C18.3017 31.1598 18.1221 30.2754 17.8752 30.3192Z" fill="#E34E70"/>
    <path d="M17.2002 31.7019C16.6595 31.8128 16.9923 33.4394 17.5314 33.3331C18.072 33.2253 17.7408 31.5941 17.2002 31.7019Z" fill="#F7B3C5"/>
    <path d="M17.3439 32.0566C17.0955 32.1066 17.2767 33.0035 17.5236 32.9488C17.7721 32.8941 17.5892 32.005 17.3439 32.0566Z" fill="#E34E70"/>
    <path d="M18.4376 33.5098C17.8986 33.6192 18.2283 35.2473 18.7689 35.1379C19.3095 35.0286 18.9798 33.3989 18.4376 33.5098Z" fill="#F7B3C5"/>
    <path d="M18.583 33.8629C18.333 33.916 18.5142 34.8113 18.7611 34.7566C19.0064 34.7004 18.8236 33.8129 18.583 33.8629Z" fill="#E34E70"/>
    <path d="M18.1298 35.4161C17.5829 35.4348 17.6423 37.0973 18.1923 37.077C18.7454 37.0567 18.6829 35.3942 18.1298 35.4145V35.4161Z" fill="#F7B3C5"/>
    <path d="M18.2158 35.7895C17.9611 35.8004 17.997 36.7082 18.247 36.6989C18.4986 36.6895 18.4658 35.7801 18.2158 35.7895Z" fill="#E34E70"/>
    <path d="M18.4048 37.7692C17.9767 37.4208 17.1001 38.502 17.5298 38.8489C17.9595 39.1973 18.8329 38.1145 18.4048 37.7692Z" fill="#F7B3C5"/>
    <path d="M18.2611 38.0598C18.0642 37.9019 17.5861 38.4926 17.7877 38.6504C17.9908 38.8066 18.4564 38.2176 18.2611 38.0598Z" fill="#E34E70"/>
    <path d="M16.9627 38.791C16.7408 38.391 15.7283 38.9504 15.9502 39.3489C16.172 39.7457 17.183 39.1926 16.9611 38.7926L16.9627 38.791Z" fill="#F389A4"/>
    <path d="M16.7689 38.9692C16.6674 38.7848 16.1158 39.0895 16.2142 39.2708C16.3142 39.452 16.8627 39.152 16.7689 38.9692Z" fill="#E34E70"/>
    <path d="M15.6861 40.0144C15.6517 39.5988 14.6611 39.68 14.6955 40.0957C14.7298 40.5113 15.7205 40.4285 15.6861 40.0144Z" fill="#F389A4"/>
    <path d="M15.4658 40.0848C15.4501 39.8941 14.908 39.9379 14.922 40.127C14.9376 40.316 15.4814 40.2707 15.4658 40.0848Z" fill="#E34E70"/>
    <path d="M14.2986 39.7675C14.3876 39.3972 13.5095 39.1832 13.4173 39.5535C13.3251 39.9238 14.2079 40.1363 14.2986 39.7675Z" fill="#F389A4"/>
    <path d="M14.0845 39.7644C14.1236 39.5957 13.6423 39.4801 13.6001 39.6457C13.5595 39.8113 14.047 39.9332 14.0845 39.7644Z" fill="#E34E70"/>
    <path d="M12.9689 39.7972C13.1142 39.4441 12.2751 39.0972 12.1314 39.4488C11.9876 39.8019 12.8189 40.141 12.9689 39.7972Z" fill="#F389A4"/>
    <path d="M12.7626 39.7536C12.8267 39.5973 12.3689 39.4051 12.3017 39.5629C12.2361 39.7207 12.6954 39.9161 12.7626 39.7536Z" fill="#E34E70"/>
    <path d="M12.2205 38.8582C12.4986 38.5988 11.8783 37.9348 11.6033 38.1942C11.3267 38.452 11.9423 39.1176 12.2205 38.8582Z" fill="#F389A4"/>
    <path d="M12.0454 38.7395C12.1704 38.6207 11.8345 38.2567 11.7079 38.3754C11.5829 38.4942 11.9189 38.8598 12.0454 38.7395Z" fill="#E34E70"/>
    <path d="M11.197 37.6706C11.5627 37.566 11.3111 36.6925 10.9455 36.8003C10.5814 36.9081 10.8361 37.7785 11.1986 37.6706H11.197Z" fill="#F389A4"/>
    <path d="M11.0955 37.4879C11.2533 37.4379 11.1236 36.9614 10.958 37.0129C10.7923 37.0661 10.9251 37.5379 11.0955 37.4879Z" fill="#E34E70"/>
    <path d="M12.1752 29.1458C12.1283 28.5973 10.472 28.7395 10.522 29.2911C10.5705 29.8411 12.2252 29.6973 12.1752 29.1458Z" fill="#F389A4"/>
    <path d="M11.808 29.2473C11.7845 28.9942 10.8814 29.0754 10.9017 29.3254C10.9251 29.5754 11.8298 29.4973 11.808 29.2473Z" fill="#E34E70"/>
    <path d="M10.1892 28.566C10.1783 28.0253 8.51736 28.0581 8.52986 28.6019C8.54236 29.1456 10.2017 29.1097 10.1892 28.566Z" fill="#F7B3C5"/>
    <path d="M9.8189 28.6442C9.8189 28.3942 8.9064 28.4145 8.91109 28.6614C8.91578 28.9082 9.8189 28.8957 9.8189 28.6442Z" fill="#E34E70"/>
    <path d="M8.30637 29.2535C8.18919 28.7332 6.74387 29.0629 6.86575 29.5879C6.98762 30.1113 8.42825 29.7785 8.30794 29.2535H8.30637Z" fill="#F7B3C5"/>
    <path d="M7.99701 29.3956C7.94076 29.1581 7.1517 29.3394 7.20639 29.5769C7.26264 29.8128 8.0517 29.6363 7.99701 29.3956Z" fill="#E34E70"/>
    <path d="M6.29859 29.2941C6.05328 28.8191 4.84546 29.4394 5.0939 29.9254C5.34078 30.4113 6.5439 29.7723 6.29859 29.2941Z" fill="#FACFDA"/>
    <path d="M6.0564 29.4957C5.9439 29.277 5.28608 29.6192 5.39546 29.8332C5.50483 30.0489 6.1689 29.7129 6.0564 29.4957Z" fill="#E34E70"/>
    <path d="M5.02515 30.6614C4.62671 30.4817 4.16734 31.4958 4.5689 31.677C4.97046 31.8551 5.42827 30.8426 5.02515 30.6614Z" fill="#FACFDA"/>
    <path d="M4.97358 30.916C4.79076 30.8316 4.54076 31.3894 4.72045 31.4691C4.90014 31.5473 5.15795 30.9957 4.97358 30.916Z" fill="#E34E70"/>
    <path d="M3.90642 31.8848C3.46892 31.8848 3.47205 32.9988 3.90642 32.991C4.3408 32.9832 4.34392 31.8848 3.90642 31.8863V31.8848Z" fill="#FACFDA"/>
    <path d="M3.96422 32.1379C3.7611 32.1379 3.76422 32.7473 3.96422 32.7473C4.16422 32.7473 4.16422 32.1379 3.96422 32.1379Z" fill="#E34E70"/>
    <path d="M4.33452 33.3207C3.9439 33.391 4.12671 34.3879 4.5189 34.3144C4.90952 34.2394 4.72671 33.2519 4.33452 33.3207Z" fill="#FACFDA"/>
    <path d="M4.42672 33.541C4.24547 33.5753 4.34703 34.1191 4.52516 34.0863C4.70328 34.0535 4.60641 33.5082 4.42672 33.541Z" fill="#E34E70"/>
    <path d="M4.29079 34.7629C3.97516 34.9379 4.4236 35.7363 4.73922 35.5519C5.05485 35.3676 4.60641 34.5832 4.29079 34.7629Z" fill="#FACFDA"/>
    <path d="M4.4267 34.9192C4.28295 35.0004 4.52826 35.4363 4.67201 35.3551C4.81576 35.2723 4.57201 34.8395 4.4267 34.9176V34.9192Z" fill="#E34E70"/>
    <path d="M5.22824 35.8238C5.00949 36.0379 5.54543 36.5957 5.77199 36.38C6.00012 36.1629 5.44856 35.6082 5.22981 35.8238H5.22824Z" fill="#FACFDA"/>
    <path d="M5.37985 35.9223C5.27829 36.0207 5.57673 36.3254 5.67673 36.227C5.77516 36.1285 5.47985 35.8238 5.37985 35.9223Z" fill="#E34E70"/>
    <path d="M7.33764 26.1145C7.46264 25.5895 5.84701 25.2051 5.72045 25.7348C5.59545 26.2629 7.21108 26.6457 7.33764 26.1145Z" fill="#F7B3C5"/>
    <path d="M6.95483 26.0972C7.01108 25.855 6.12983 25.6456 6.07046 25.8863C6.01265 26.1253 6.89858 26.3378 6.95483 26.0972Z" fill="#E34E70"/>
    <path d="M5.26733 26.2566C5.42515 25.8066 3.85796 25.2566 3.70015 25.7097C3.5439 26.1613 5.11108 26.7097 5.26733 26.2566Z" fill="#FACFDA"/>
    <path d="M4.89234 26.191C4.96578 25.9816 4.10328 25.6832 4.03453 25.8895C3.96734 26.0941 4.82047 26.3973 4.8939 26.191H4.89234Z" fill="#E34E70"/>
    <path d="M3.85328 25.0754C4.16891 24.7207 2.94391 23.6036 2.62203 23.9567C2.30016 24.3114 3.53297 25.4301 3.85328 25.0754Z" fill="#FACFDA"/>
    <path d="M3.53453 24.8676C3.6814 24.7098 3.0064 24.0942 2.86265 24.2535C2.71578 24.4145 3.38765 25.0285 3.53453 24.8676Z" fill="#E34E70"/>
    <path d="M1.84233 23.9316C2.24233 23.666 1.31889 22.2816 0.920453 22.5472C0.522016 22.8129 1.44858 24.1957 1.84233 23.93V23.9316Z" fill="#FACFDA"/>
    <path d="M1.58607 23.6504C1.76732 23.527 1.26888 22.7754 1.08138 22.8926C0.893881 23.0114 1.40326 23.7707 1.58607 23.6504Z" fill="#E34E70"/>
    <path d="M1.27513 21.9566C1.72513 21.7879 1.1345 20.2332 0.687628 20.4019C0.242315 20.5691 0.829815 22.1285 1.27513 21.9566Z" fill="#FACFDA"/>
    <path d="M1.08763 21.6301C1.29075 21.552 0.967314 20.702 0.770439 20.7786C0.573564 20.8567 0.882939 21.7051 1.08606 21.6301H1.08763Z" fill="#E34E70"/>
    <path d="M0.450154 19.8097C0.800154 19.8503 0.934529 18.6269 0.584529 18.5878C0.232966 18.5488 0.0970289 19.7706 0.450154 19.8097Z" fill="#FACFDA"/>
    <path d="M0.436054 19.5301C0.592304 19.5457 0.667304 18.877 0.509492 18.8614C0.353242 18.8457 0.275117 19.5098 0.436054 19.5301Z" fill="#E34E70"/>
    <path d="M5.51264 18.0316C5.94389 17.98 5.74076 16.3285 5.30951 16.3832C4.87826 16.4379 5.08139 18.0863 5.51264 18.0316Z" fill="#F7B3C5"/>
    <path d="M5.41107 17.666C5.60951 17.641 5.49857 16.7379 5.30169 16.7613C5.10638 16.7848 5.21419 17.6894 5.41107 17.666Z" fill="#E34E70"/>
    <path d="M6.15797 16.7098C6.59078 16.7457 6.72516 15.0879 6.28922 15.0536C5.85328 15.0176 5.72203 16.6754 6.15797 16.7098Z" fill="#F7B3C5"/>
    <path d="M6.13295 16.3285C6.33139 16.3441 6.40326 15.4394 6.20483 15.4222C6.00795 15.4051 5.93451 16.3144 6.13295 16.3285Z" fill="#E34E70"/>
    <path d="M5.69233 14.6457C6.08764 14.8285 6.7767 13.3176 6.37983 13.1348C5.98452 12.9535 5.29389 14.466 5.69233 14.6457Z" fill="#F7B3C5"/>
    <path d="M5.79857 14.2817C5.97826 14.3645 6.35482 13.5395 6.17669 13.4551C5.99857 13.3723 5.61576 14.2051 5.79857 14.2817Z" fill="#E34E70"/>
    <path d="M7.00642 13.43C7.36111 13.6285 8.11267 12.2769 7.75642 12.08C7.39705 11.8816 6.64705 13.2316 7.00642 13.43Z" fill="#F7B3C5"/>
    <path d="M7.13452 13.1004C7.29077 13.1911 7.7064 12.4536 7.5439 12.3629C7.37983 12.2692 6.96577 13.0082 7.13452 13.1004Z" fill="#E34E70"/>
    <path d="M7.25012 11.7629C7.55325 12.0004 8.42512 10.8816 8.11887 10.6441C7.81106 10.4051 6.94075 11.5191 7.25012 11.7629Z" fill="#F7B3C5"/>
    <path d="M7.40795 11.4785C7.54701 11.5879 8.02358 10.977 7.88139 10.8692C7.7392 10.7598 7.26733 11.3692 7.40795 11.4785Z" fill="#E34E70"/>
    <path d="M8.71262 11.0832C9.00637 11.3363 9.93137 10.2629 9.63762 10.0098C9.34387 9.75666 8.42512 10.8301 8.71418 11.0832H8.71262Z" fill="#F7B3C5"/>
    <path d="M8.89232 10.8066C9.02514 10.9254 9.52357 10.3332 9.39701 10.2223C9.27201 10.1098 8.75639 10.691 8.89232 10.8082V10.8066Z" fill="#E34E70"/>
    <path d="M9.37824 9.65044C9.64387 9.87856 10.3986 9.00044 10.1329 8.77387C9.86731 8.54575 9.11262 9.42231 9.37824 9.652V9.65044Z" fill="#F7B3C5"/>
    <path d="M9.51577 9.42224C9.63764 9.52693 10.0517 9.04724 9.92983 8.9488C9.80796 8.85036 9.39546 9.31911 9.51577 9.42224Z" fill="#E34E70"/>
    <path d="M10.647 9.36912C10.9439 9.54881 11.5455 8.55818 11.2455 8.37693C10.9455 8.19568 10.3455 9.18474 10.647 9.36912Z" fill="#F389A4"/>
    <path d="M10.7439 9.12071C10.8798 9.20352 11.2095 8.6629 11.072 8.57852C10.9377 8.49571 10.6095 9.0379 10.7439 9.12071Z" fill="#E34E70"/>
    <path d="M10.7673 8.17849C11.1002 8.27693 11.358 7.41755 11.022 7.31911C10.6845 7.21911 10.4361 8.07849 10.7673 8.17849Z" fill="#F389A4"/>
    <path d="M10.7892 7.97075C10.947 8.01762 11.0814 7.54575 10.9283 7.49731C10.7751 7.44731 10.6361 7.92544 10.7876 7.97075H10.7892Z" fill="#E34E70"/>
    <path d="M11.6908 7.22226C12.0189 7.10663 11.7236 6.25976 11.3939 6.37694C11.0611 6.49413 11.3611 7.34101 11.6908 7.22069V7.22226Z" fill="#F389A4"/>
    <path d="M11.5814 7.04571C11.7392 6.99415 11.5689 6.53008 11.4252 6.58321C11.2783 6.6379 11.4314 7.09727 11.5814 7.04571Z" fill="#E34E70"/>
    <path d="M10.8548 6.24262C10.9111 5.89887 10.0267 5.75825 9.97045 6.10512C9.91576 6.45044 10.8017 6.59106 10.8548 6.24262Z" fill="#F389A4"/>
    <path d="M10.6486 6.25508C10.6736 6.09727 10.1892 6.02227 10.1642 6.17852C10.1408 6.33477 10.6236 6.41289 10.6486 6.25508Z" fill="#E34E70"/>
  </g>
  <defs>
    <radialGradient id="paint0_radial_408_255" cx="0" cy="0" r="1" gradientUnits="userSpaceOnUse" gradientTransform="translate(1983.82 1966.71) scale(1985.28 1985.27)">
      <stop stop-color="#E33332"/>
      <stop offset="0.2" stop-color="#E03330"/>
      <stop offset="0.38" stop-color="#D52E2C"/>
      <stop offset="0.54" stop-color="#C32827"/>
      <stop offset="0.71" stop-color="#A91F23"/>
      <stop offset="0.86" stop-color="#89181A"/>
      <stop offset="1" stop-color="#640E0E"/>
    </radialGradient>
    <linearGradient id="paint1_linear_408_255" x1="3.5141" y1="540.247" x2="1109" y2="540.247" gradientUnits="userSpaceOnUse">
      <stop stop-color="#F7B3C5"/>
      <stop offset="0.19" stop-color="#F7B0C2"/>
      <stop offset="0.38" stop-color="#F6A4B6"/>
      <stop offset="0.58" stop-color="#F390A5"/>
      <stop offset="0.79" stop-color="#E7728B"/>
      <stop offset="0.99" stop-color="#DC4D6C"/>
      <stop offset="1" stop-color="#DA4B6A"/>
    </linearGradient>
    <linearGradient id="paint2_linear_408_255" x1="0.768703" y1="288.758" x2="1508.88" y2="288.758" gradientUnits="userSpaceOnUse">
      <stop stop-color="#F7B3C5"/>
      <stop offset="0.19" stop-color="#F7B0C2"/>
      <stop offset="0.38" stop-color="#F6A4B6"/>
      <stop offset="0.58" stop-color="#F390A5"/>
      <stop offset="0.79" stop-color="#E7728B"/>
      <stop offset="0.99" stop-color="#DC4D6C"/>
      <stop offset="1" stop-color="#DA4B6A"/>
    </linearGradient>
    <radialGradient id="paint3_radial_408_255" cx="0" cy="0" r="1" gradientUnits="userSpaceOnUse" gradientTransform="translate(390.962 378.352) scale(694.649 694.523)">
      <stop stop-color="#F7B3C5"/>
      <stop offset="0.19" stop-color="#F7B0C2"/>
      <stop offset="0.38" stop-color="#F6A4B6"/>
      <stop offset="0.58" stop-color="#F390A5"/>
      <stop offset="0.79" stop-color="#E7728B"/>
      <stop offset="0.99" stop-color="#DC4D6C"/>
      <stop offset="1" stop-color="#DA4B6A"/>
    </radialGradient>
    <radialGradient id="paint4_radial_408_255" cx="0" cy="0" r="1" gradientUnits="userSpaceOnUse" gradientTransform="translate(782.55 786.384) scale(859.047 859.08)">
      <stop stop-color="#F7B3C5"/>
      <stop offset="0.19" stop-color="#F7B0C2"/>
      <stop offset="0.38" stop-color="#F6A4B6"/>
      <stop offset="0.58" stop-color="#F390A5"/>
      <stop offset="0.79" stop-color="#E7728B"/>
      <stop offset="0.99" stop-color="#DC4D6C"/>
      <stop offset="1" stop-color="#DA4B6A"/>
    </radialGradient>
    <linearGradient id="paint5_linear_408_255" x1="25.9189" y1="540.213" x2="1131.32" y2="540.213" gradientUnits="userSpaceOnUse">
      <stop stop-color="#DA4B6A"/>
      <stop offset="0.01" stop-color="#DC4D6C"/>
      <stop offset="0.21" stop-color="#E7728B"/>
      <stop offset="0.42" stop-color="#F390A5"/>
      <stop offset="0.62" stop-color="#F6A4B6"/>
      <stop offset="0.81" stop-color="#F7B0C2"/>
      <stop offset="1" stop-color="#F7B3C5"/>
    </linearGradient>
    <linearGradient id="paint6_linear_408_255" x1="25.0857" y1="288.963" x2="1533.22" y2="288.963" gradientUnits="userSpaceOnUse">
      <stop stop-color="#DA4B6A"/>
      <stop offset="0.01" stop-color="#DC4D6C"/>
      <stop offset="0.21" stop-color="#E7728B"/>
      <stop offset="0.42" stop-color="#F390A5"/>
      <stop offset="0.62" stop-color="#F6A4B6"/>
      <stop offset="0.81" stop-color="#F7B0C2"/>
      <stop offset="1" stop-color="#F7B3C5"/>
    </linearGradient>
    <radialGradient id="paint7_radial_408_255" cx="0" cy="0" r="1" gradientUnits="userSpaceOnUse" gradientTransform="translate(421.479 378.235) scale(694.375 694.459)">
      <stop stop-color="#F7B3C5"/>
      <stop offset="0.19" stop-color="#F7B0C2"/>
      <stop offset="0.38" stop-color="#F6A4B6"/>
      <stop offset="0.58" stop-color="#F390A5"/>
      <stop offset="0.79" stop-color="#E7728B"/>
      <stop offset="0.99" stop-color="#DC4D6C"/>
      <stop offset="1" stop-color="#DA4B6A"/>
    </radialGradient>
    <clipPath id="clip0_408_255">
      <rect width="40" height="40" fill="white" transform="translate(0.243896 0.369141)"/>
    </clipPath>
  </defs>
</svg>