<svg xmlns="http://www.w3.org/2000/svg" width="41" height="41" viewBox="0 0 41 41" fill="none">
  <g clip-path="url(#clip0_408_240)">
    <path d="M3.68335 0.369141H37.4333C39.1593 0.369141 40.5583 1.7682 40.5583 3.49414V37.2441C40.5583 38.9701 39.1593 40.3691 37.4333 40.3691H3.68335C1.95741 40.3691 0.55835 38.9701 0.55835 37.2441V3.49414C0.55835 1.7682 1.95741 0.369141 3.68335 0.369141Z" fill="#3178C6"/>
    <path d="M24.0768 31.6934V36.009C24.7787 36.3687 25.6088 36.6384 26.5671 36.8182C27.5254 36.998 28.5354 37.0879 29.5973 37.0879C30.6319 37.0879 31.6151 36.989 32.5463 36.7912C33.4776 36.5934 34.2943 36.2674 34.996 35.8135C35.6979 35.3595 36.2535 34.766 36.663 34.0332C37.0724 33.3005 37.2771 32.3948 37.2771 31.3159C37.2771 30.5337 37.1601 29.848 36.9262 29.2591C36.6948 28.6742 36.3509 28.1404 35.9138 27.688C35.473 27.2295 34.9443 26.8182 34.328 26.454C33.7116 26.0899 33.0165 25.746 32.2426 25.4224C31.6757 25.1885 31.1674 24.9616 30.7174 24.7413C30.2676 24.521 29.8851 24.2963 29.5702 24.067C29.2552 23.8377 29.0123 23.5949 28.8413 23.3387C28.6704 23.0824 28.5849 22.7926 28.5849 22.4688C28.5849 22.1721 28.6613 21.9048 28.8143 21.6665C28.9673 21.4282 29.1833 21.2237 29.4623 21.0529C29.7412 20.882 30.083 20.7495 30.488 20.6549C30.8929 20.5605 31.3429 20.5134 31.8377 20.5134C32.1977 20.5134 32.5779 20.5404 32.9782 20.5943C33.3787 20.6482 33.7813 20.7313 34.1863 20.8438C34.59 20.9557 34.9848 21.0978 35.3673 21.2687C35.7381 21.433 36.0928 21.6316 36.4268 21.862V17.8296C35.7699 17.5779 35.0523 17.3913 34.274 17.2699C33.4957 17.1485 32.6026 17.0879 31.5948 17.0879C30.569 17.0879 29.5973 17.198 28.6794 17.4184C27.7616 17.6385 26.954 17.9824 26.2566 18.4499C25.5593 18.9176 25.0082 19.5132 24.6032 20.237C24.1983 20.9607 23.9958 21.826 23.9958 22.833C23.9958 24.1187 24.3669 25.2155 25.1094 26.1237C25.8518 27.0316 26.9787 27.8004 28.4904 28.4298C29.0484 28.657 29.6019 28.8954 30.1505 29.1446C30.6635 29.3784 31.1066 29.621 31.4801 29.8727C31.8535 30.1245 32.1482 30.3987 32.3641 30.6954C32.5801 30.9921 32.688 31.3293 32.688 31.707C32.6898 31.9787 32.62 32.2462 32.4855 32.4824C32.3507 32.7205 32.1459 32.9274 31.8715 33.1027C31.5971 33.278 31.2551 33.4151 30.8457 33.514C30.4363 33.6129 29.9571 33.6624 29.4082 33.6624C28.4724 33.6624 27.5457 33.4984 26.6279 33.1701C25.7099 32.842 24.8596 32.3498 24.0768 31.6934ZM16.8837 20.9538H22.4333V17.4004H6.9646V20.9538H12.4873V36.7754H16.8837V20.9538Z" fill="white"/>
  </g>
  <defs>
    <clipPath id="clip0_408_240">
      <rect width="40" height="40" fill="white" transform="translate(0.55835 0.369141)"/>
    </clipPath>
  </defs>
</svg>